M48
;Layer_Color=9474304
;FILE_FORMAT=4:4
METRIC,LZ
;TYPE=PLATED
T1F00S00C0.3000
T2F00S00C0.6000
T3F00S00C0.7112
T4F00S00C0.8000
T5F00S00C1.0000
T6F00S00C2.0000
%
T01
X0001Y001
X0002
X0003
X0004
X0005
X0006
X0007
X0008
X0009
X001
X0011
X0012
X0013
X00084Y00148
X0015Y00136
X0018Y001
X0019
X002
X0025
Y0033
X00250873Y00361873
X00261Y0035946
Y00368
X00242Y00367
X00197
X00191Y00389
X00182292Y00399865
X00177Y00407
X00172Y00416
X0016Y00417
X00149Y00418
X00155417Y00446667
X00184807Y00446193
X001925Y0045475
X00193Y004665
X00196548Y00475019
X002075Y004825
X00202Y0049
X00208Y00498
X0019Y0050616
X0018075Y005075
X00184066Y00490934
X00177Y00484
X0015373Y004825
X0015Y00472
X00207623Y00460377
X00214865Y00455852
X00225723Y0046671
X0023899Y00481254
X002359Y00489215
X00236Y00517
X00247487Y00512
X00253237Y00523415
X00251Y00535
X00224Y00533
X00204818Y00535545
X00204Y0052196
X00172Y00536
X00158Y0058
X002Y0044825
X00233Y00444
X0025Y00463
X00275Y00477
X0028Y00493
X00259848Y00506602
X00268Y0042575
X002775Y0041
X0019497
X0017Y003975
X00156Y00384
X00144Y00371
X0016Y00362
X00161Y00334
X00154Y00326
X00178Y00323
X00222Y00337
X001275Y003175
X000975Y003325
X00065Y003525
X00035Y003675
X000425Y00301769
X0005Y00255
X0007504Y00275
X0011726Y00369
X00139Y00379
X00092Y0044
X00075Y004725
X00052Y00476
X00035Y004575
X0011925Y0049375
X001275Y005125
X000425Y00575
T02
X002875Y002775
X002825Y00349973
T03
X00016Y00026
X00046
X00076
X00106
X00136
X00106Y00086
X00076
X00046
X00016
X00031Y00056
X00061
X00136Y00206
X00166
X00196
X00226
X00256
X00271Y00236
X00241
X00211
X00181
X00151
Y00176
X00181
X00211
X00241
X00271Y00116
X00211
X00181
X00196Y00026
X00226
X00241Y00056
X00166Y00026
X00151Y00296
X00301Y00356
T04
X000175Y001735
Y001955
Y002175
X000683
Y001955
Y001735
Y002495
X000175
T05
X000817Y00055
X001071
X001325
X001579
X001833
X002087
X002146Y00275
X001892
Y003004
X002146
X0024
Y00275
X002654
Y003004
X003Y003896
Y00415
Y004404
Y004658
X003Y004971
Y005225
Y005479
Y005733
X002681Y0058
X002427
X002173
X001919
X000917Y005797
Y005543
X000663
Y005797
T06
X00295Y0013
X000225Y005775
M30
