G04*
G04 #@! TF.GenerationSoftware,Altium Limited,Altium Designer,22.9.1 (49)*
G04*
G04 Layer_Physical_Order=2*
G04 Layer_Color=16711680*
%FSLAX44Y44*%
%MOMM*%
G71*
G04*
G04 #@! TF.SameCoordinates,7A88E338-F056-4336-BEC6-008BA3D2BE7B*
G04*
G04*
G04 #@! TF.FilePolarity,Positive*
G04*
G01*
G75*
%ADD14C,0.1500*%
%ADD78C,0.2540*%
%ADD79C,0.5000*%
%ADD81C,1.0000*%
%ADD83C,0.1510*%
%ADD84C,0.2500*%
%ADD86C,1.8000*%
%ADD87R,1.8000X1.8000*%
%ADD88R,1.8000X1.8000*%
%ADD89C,1.2000*%
%ADD90C,1.6000*%
%ADD91R,1.6000X1.6000*%
%ADD92C,0.6000*%
%ADD93C,1.2700*%
%ADD94C,2.0000*%
%ADD95C,0.9000*%
G36*
X299280Y596517D02*
X303396Y595269D01*
X307188Y593241D01*
X310513Y590513D01*
X313241Y587188D01*
X315269Y583396D01*
X316517Y579280D01*
X316926Y575129D01*
X316900Y575000D01*
Y125000D01*
X316926Y124871D01*
X316517Y120720D01*
X315269Y116604D01*
X313241Y112812D01*
X310513Y109487D01*
X307188Y106759D01*
X303396Y104731D01*
X299280Y103483D01*
X295128Y103074D01*
X295000Y103100D01*
X265000D01*
X263814Y102864D01*
X262808Y102192D01*
X262136Y101186D01*
X261900Y100000D01*
Y25000D01*
X261926Y24872D01*
X261517Y20720D01*
X260269Y16604D01*
X258241Y12812D01*
X255513Y9487D01*
X252188Y6759D01*
X248396Y4731D01*
X244280Y3483D01*
X241245Y3184D01*
X240000Y3100D01*
X240000Y3100D01*
X238750Y3100D01*
X26259D01*
X25000Y3100D01*
X23765Y3183D01*
X20720Y3483D01*
X16604Y4731D01*
X12812Y6759D01*
X9487Y9487D01*
X6759Y12812D01*
X4731Y16604D01*
X3483Y20720D01*
X3184Y23754D01*
X3100Y25000D01*
X3100Y25000D01*
X3100Y26250D01*
Y573741D01*
X3100Y575000D01*
X3183Y576235D01*
X3483Y579280D01*
X4731Y583396D01*
X6759Y587188D01*
X9487Y590513D01*
X12812Y593241D01*
X16604Y595269D01*
X20720Y596517D01*
X23765Y596817D01*
X25000Y596900D01*
Y596900D01*
X25000Y596900D01*
X295000D01*
X295129Y596926D01*
X299280Y596517D01*
D02*
G37*
%LPC*%
G36*
X269619Y591540D02*
X266581D01*
X263646Y590754D01*
X261014Y589234D01*
X258866Y587086D01*
X257346Y584454D01*
X256560Y581519D01*
Y578481D01*
X257346Y575546D01*
X258217Y574038D01*
X257201Y573258D01*
X253762Y576697D01*
X254240Y578481D01*
Y581519D01*
X253454Y584454D01*
X251934Y587086D01*
X249786Y589234D01*
X247154Y590754D01*
X244219Y591540D01*
X241181D01*
X238246Y590754D01*
X235614Y589234D01*
X233466Y587086D01*
X231946Y584454D01*
X231160Y581519D01*
Y578481D01*
X231946Y575546D01*
X233466Y572914D01*
X235614Y570766D01*
X238145Y569305D01*
X238174Y569190D01*
X237519Y568035D01*
X234209D01*
X227557Y574687D01*
X228053Y575546D01*
X228840Y578481D01*
Y581519D01*
X228053Y584454D01*
X226534Y587086D01*
X224386Y589234D01*
X221754Y590754D01*
X218819Y591540D01*
X215781D01*
X212846Y590754D01*
X210214Y589234D01*
X208066Y587086D01*
X206546Y584454D01*
X205760Y581519D01*
Y578481D01*
X206546Y575546D01*
X208066Y572914D01*
X210214Y570766D01*
X212846Y569247D01*
X215781Y568460D01*
X218819D01*
X221754Y569247D01*
X222867Y569889D01*
X227457Y565299D01*
X226971Y564126D01*
X212718D01*
X203440Y573404D01*
Y591540D01*
X180360D01*
Y568460D01*
X198896D01*
X208957Y558399D01*
X210045Y557672D01*
X211329Y557417D01*
X254984D01*
X263766Y548635D01*
Y512179D01*
X262496Y511502D01*
X260950Y512142D01*
X258746D01*
X256710Y511299D01*
X255151Y509740D01*
X255095Y509604D01*
X253634D01*
X252929Y510660D01*
X253027Y510898D01*
Y513102D01*
X252184Y515138D01*
X250625Y516697D01*
X248589Y517540D01*
X246385D01*
X245495Y517171D01*
X245453Y517199D01*
X244170Y517454D01*
X242228D01*
X241907Y518225D01*
X242687Y519396D01*
X249422D01*
X250099Y518718D01*
X252135Y517875D01*
X254339D01*
X256375Y518718D01*
X257934Y520277D01*
X258777Y522313D01*
Y524517D01*
X257934Y526553D01*
X256375Y528111D01*
X254339Y528955D01*
X252135D01*
X250099Y528111D01*
X248540Y526553D01*
X248355Y526105D01*
X207691D01*
X207138Y526657D01*
X205102Y527500D01*
X202898D01*
X200862Y526657D01*
X199520Y525315D01*
X188367D01*
X188180Y525439D01*
X186897Y525694D01*
X153485D01*
X152201Y525439D01*
X151113Y524712D01*
X129685Y503284D01*
X128958Y502196D01*
X128703Y500912D01*
Y391170D01*
X128958Y389886D01*
X129685Y388798D01*
X135047Y383436D01*
Y382882D01*
X134303Y382138D01*
X133460Y380102D01*
Y377898D01*
X134303Y375862D01*
X135862Y374303D01*
X137898Y373460D01*
X138592Y372421D01*
X138460Y372102D01*
Y369898D01*
X139303Y367862D01*
X140862Y366303D01*
X142898Y365460D01*
X145102D01*
X147138Y366303D01*
X148697Y367862D01*
X149540Y369898D01*
Y370920D01*
X150810Y371446D01*
X156211Y366045D01*
X155303Y365138D01*
X154460Y363102D01*
Y360898D01*
X154975Y359655D01*
X154127Y358384D01*
X130030D01*
X128746Y358129D01*
X127658Y357402D01*
X119378Y349122D01*
X118651Y348034D01*
X118396Y346750D01*
Y283139D01*
X113610Y278354D01*
X79520D01*
X78178Y279697D01*
X76142Y280540D01*
X73938D01*
X71902Y279697D01*
X70343Y278138D01*
X69500Y276102D01*
Y273898D01*
X70343Y271862D01*
X71902Y270303D01*
X72261Y270155D01*
X72008Y268885D01*
X62326D01*
X48885Y282325D01*
Y298551D01*
X48589Y300038D01*
X48040Y300859D01*
Y302871D01*
X47197Y304907D01*
X45638Y306466D01*
X43602Y307309D01*
X41398D01*
X41195Y307225D01*
X40139Y307930D01*
Y365429D01*
X40540Y366398D01*
Y368602D01*
X40139Y369571D01*
Y455429D01*
X40540Y456398D01*
Y458602D01*
X40139Y459571D01*
Y472872D01*
X45592Y478325D01*
X46668Y477605D01*
X46460Y477102D01*
Y474898D01*
X47303Y472862D01*
X48115Y472050D01*
Y370488D01*
X48411Y369001D01*
X49253Y367741D01*
X50741Y366253D01*
X52001Y365411D01*
X53488Y365115D01*
X113310D01*
X114122Y364303D01*
X116158Y363460D01*
X118362D01*
X120398Y364303D01*
X121957Y365862D01*
X122800Y367898D01*
Y370102D01*
X121957Y372138D01*
X120398Y373697D01*
X118362Y374540D01*
X116158D01*
X114122Y373697D01*
X113310Y372885D01*
X55885D01*
Y472050D01*
X56697Y472862D01*
X57540Y474898D01*
Y477102D01*
X56697Y479138D01*
X55138Y480697D01*
X53102Y481540D01*
X50898D01*
X50395Y481332D01*
X49675Y482408D01*
X74629Y507361D01*
X125429D01*
X126398Y506960D01*
X128602D01*
X130638Y507803D01*
X132197Y509362D01*
X133040Y511398D01*
Y513602D01*
X132197Y515638D01*
X130638Y517197D01*
X128602Y518040D01*
X126398D01*
X125429Y517639D01*
X72500D01*
X70533Y517248D01*
X68866Y516134D01*
X31366Y478634D01*
X30252Y476967D01*
X29861Y475000D01*
Y459571D01*
X29460Y458602D01*
Y456398D01*
X29861Y455429D01*
Y369571D01*
X29460Y368602D01*
Y366398D01*
X29861Y365429D01*
Y272553D01*
X28688Y272067D01*
X22605Y278150D01*
Y473950D01*
X74185Y525530D01*
X75394Y527105D01*
X75488Y527333D01*
X90915Y542760D01*
X103240D01*
Y565840D01*
X80160D01*
Y553516D01*
X78887Y552243D01*
X77840Y552992D01*
Y555819D01*
X77053Y558754D01*
X75534Y561386D01*
X73386Y563534D01*
X70754Y565054D01*
X67819Y565840D01*
X64781D01*
X61846Y565054D01*
X59214Y563534D01*
X57066Y561386D01*
X55546Y558754D01*
X54760Y555819D01*
Y552781D01*
X55546Y549846D01*
X57066Y547214D01*
X59214Y545066D01*
X61846Y543546D01*
X64781Y542760D01*
X67608D01*
X68357Y541713D01*
X63430Y536786D01*
X62221Y535211D01*
X62127Y534983D01*
X9622Y482478D01*
X8414Y480903D01*
X7654Y479069D01*
X7395Y477100D01*
Y275000D01*
X7654Y273032D01*
X8414Y271197D01*
X9622Y269622D01*
X20353Y258892D01*
X19696Y257753D01*
X18624Y258040D01*
X16376D01*
X14204Y257458D01*
X12256Y256334D01*
X10666Y254744D01*
X9542Y252796D01*
X8960Y250624D01*
Y248376D01*
X9542Y246204D01*
X10666Y244256D01*
X12256Y242666D01*
X14204Y241542D01*
X16376Y240960D01*
X18624D01*
X20796Y241542D01*
X22744Y242666D01*
X24334Y244256D01*
X25458Y246204D01*
X26040Y248376D01*
Y250515D01*
X26334Y250804D01*
X27170Y251314D01*
X27395Y251178D01*
Y208400D01*
X22483Y203488D01*
X20685D01*
X18624Y204040D01*
X16376D01*
X14204Y203458D01*
X12256Y202334D01*
X10666Y200744D01*
X9542Y198796D01*
X8960Y196624D01*
Y194376D01*
X9542Y192204D01*
X10666Y190256D01*
X12256Y188666D01*
X14204Y187542D01*
X16376Y186960D01*
X18624D01*
X20796Y187542D01*
X22070Y188278D01*
X25633D01*
X27601Y188537D01*
X29435Y189296D01*
X31010Y190505D01*
X40121Y199616D01*
X41391Y199254D01*
Y143470D01*
X41782Y141503D01*
X42896Y139836D01*
X49898Y132835D01*
X51565Y131721D01*
X53532Y131329D01*
X146836D01*
X146862Y131303D01*
X148898Y130460D01*
X151102D01*
X153138Y131303D01*
X153164Y131329D01*
X232468D01*
X234435Y131721D01*
X236102Y132835D01*
X291134Y187866D01*
X292248Y189534D01*
X292639Y191500D01*
Y272683D01*
X293133Y273177D01*
X294060Y274783D01*
X294540Y276573D01*
Y278427D01*
X294060Y280217D01*
X293133Y281823D01*
X291823Y283133D01*
X290217Y284060D01*
X288427Y284540D01*
X286573D01*
X284783Y284060D01*
X283177Y283133D01*
X281867Y281823D01*
X280940Y280217D01*
X280460Y278427D01*
Y276573D01*
X280940Y274783D01*
X281867Y273177D01*
X282361Y272683D01*
Y193629D01*
X230340Y141607D01*
X86361D01*
X86109Y142877D01*
X87138Y143303D01*
X88697Y144862D01*
X89540Y146898D01*
Y149102D01*
X88697Y151138D01*
X87138Y152697D01*
X85102Y153540D01*
X82898D01*
X81929Y153139D01*
X69128D01*
X60139Y162129D01*
Y168016D01*
X61409Y168356D01*
X61466Y168256D01*
X63056Y166666D01*
X65004Y165542D01*
X67176Y164960D01*
X69424D01*
X71596Y165542D01*
X73544Y166666D01*
X75134Y168256D01*
X76258Y170204D01*
X76840Y172376D01*
Y174624D01*
X76258Y176796D01*
X75134Y178744D01*
X73544Y180334D01*
X71596Y181458D01*
X69424Y182040D01*
X67176D01*
X65004Y181458D01*
X63056Y180334D01*
X61466Y178744D01*
X61409Y178644D01*
X60139Y178984D01*
Y212016D01*
X61409Y212356D01*
X61466Y212256D01*
X63056Y210666D01*
X65004Y209542D01*
X67176Y208960D01*
X69424D01*
X71596Y209542D01*
X73544Y210666D01*
X75134Y212256D01*
X76258Y214204D01*
X76840Y216376D01*
Y218624D01*
X76258Y220796D01*
X75134Y222744D01*
X73544Y224334D01*
X71596Y225458D01*
X69424Y226040D01*
X67176D01*
X65004Y225458D01*
X63056Y224334D01*
X61466Y222744D01*
X61409Y222644D01*
X60139Y222984D01*
Y234072D01*
X67059Y240991D01*
X67176Y240960D01*
X69424D01*
X71596Y241542D01*
X73544Y242666D01*
X75134Y244256D01*
X76258Y246204D01*
X76840Y248376D01*
Y250624D01*
X76258Y252796D01*
X75134Y254744D01*
X73544Y256334D01*
X71596Y257458D01*
X69424Y258040D01*
X67176D01*
X65004Y257458D01*
X63056Y256334D01*
X61466Y254744D01*
X60342Y252796D01*
X59760Y250624D01*
Y248376D01*
X59791Y248259D01*
X56217Y244685D01*
X54947Y245211D01*
Y252467D01*
X55540Y253898D01*
Y256102D01*
X54697Y258138D01*
X53138Y259697D01*
X52177Y260095D01*
X40139Y272133D01*
Y279116D01*
X41409Y279242D01*
X41411Y279230D01*
X42253Y277969D01*
X57970Y262253D01*
X59230Y261411D01*
X60716Y261115D01*
X179200D01*
X180687Y261411D01*
X181947Y262253D01*
X184967Y265273D01*
X185132Y265178D01*
X187812Y264460D01*
X190588D01*
X193268Y265178D01*
X195672Y266566D01*
X197634Y268528D01*
X199022Y270932D01*
X199740Y273612D01*
Y276388D01*
X199022Y279068D01*
X197634Y281472D01*
X195672Y283434D01*
X193268Y284822D01*
X190588Y285540D01*
X187812D01*
X185132Y284822D01*
X182728Y283434D01*
X180766Y281472D01*
X179378Y279068D01*
X178660Y276388D01*
Y273612D01*
X179378Y270932D01*
X179473Y270767D01*
X177591Y268885D01*
X78072D01*
X77819Y270155D01*
X78178Y270303D01*
X79520Y271646D01*
X115000D01*
X116284Y271901D01*
X117372Y272628D01*
X124122Y279378D01*
X124849Y280466D01*
X125104Y281750D01*
Y311353D01*
X126160Y312058D01*
X126398Y311960D01*
X128602D01*
X130638Y312803D01*
X132197Y314362D01*
X133040Y316398D01*
Y318602D01*
X132197Y320638D01*
X131604Y321230D01*
Y328586D01*
X131349Y329869D01*
X130622Y330958D01*
X128884Y332695D01*
Y344855D01*
X132675Y348646D01*
X177000D01*
X178284Y348901D01*
X179372Y349628D01*
X185018Y355274D01*
X185745Y356362D01*
X186000Y357646D01*
Y384369D01*
X187270Y384895D01*
X187862Y384303D01*
X189898Y383460D01*
X192102D01*
X194138Y384303D01*
X195697Y385862D01*
X196540Y387898D01*
Y390102D01*
X195697Y392138D01*
X194138Y393697D01*
X193507Y393958D01*
Y404218D01*
X193868Y404460D01*
X196072D01*
X198108Y405303D01*
X199451Y406646D01*
X273020D01*
X274362Y405303D01*
X276398Y404460D01*
X277223D01*
X277361Y404291D01*
Y354790D01*
X276867Y354295D01*
X275940Y352690D01*
X275460Y350900D01*
Y349046D01*
X275940Y347255D01*
X276867Y345650D01*
X278177Y344339D01*
X279783Y343412D01*
X281573Y342933D01*
X283427D01*
X285217Y343412D01*
X286823Y344339D01*
X288133Y345650D01*
X289060Y347255D01*
X289540Y349046D01*
Y350900D01*
X289060Y352690D01*
X288133Y354295D01*
X287639Y354790D01*
Y402163D01*
X289594Y404118D01*
X290708Y405785D01*
X290808Y406288D01*
X292023Y406657D01*
X292914Y405766D01*
X295546Y404246D01*
X298480Y403460D01*
X301519D01*
X304454Y404246D01*
X307085Y405766D01*
X309234Y407914D01*
X310753Y410546D01*
X311540Y413481D01*
Y416519D01*
X310753Y419454D01*
X309234Y422086D01*
X307085Y424234D01*
X304454Y425753D01*
X301519Y426540D01*
X298480D01*
X295546Y425753D01*
X292914Y424234D01*
X292272Y423592D01*
X291099Y424078D01*
Y431322D01*
X292272Y431808D01*
X292914Y431166D01*
X295546Y429646D01*
X298480Y428860D01*
X301519D01*
X304454Y429646D01*
X307085Y431166D01*
X309234Y433314D01*
X310753Y435946D01*
X311540Y438881D01*
Y441919D01*
X310753Y444854D01*
X309234Y447486D01*
X307085Y449634D01*
X304454Y451153D01*
X301519Y451940D01*
X298480D01*
X295546Y451153D01*
X293375Y449901D01*
X292171Y450297D01*
X291965Y450481D01*
X291962Y450495D01*
X295727Y454260D01*
X311540D01*
Y477340D01*
X305139D01*
Y486742D01*
X307086Y487866D01*
X309234Y490014D01*
X310754Y492646D01*
X311540Y495581D01*
Y498619D01*
X310754Y501554D01*
X309234Y504186D01*
X307086Y506334D01*
X304454Y507854D01*
X301519Y508640D01*
X298481D01*
X295546Y507854D01*
X292914Y506334D01*
X292238Y505658D01*
X291064Y506144D01*
Y508820D01*
X294560Y512316D01*
X295546Y511746D01*
X298481Y510960D01*
X301519D01*
X304454Y511746D01*
X307086Y513266D01*
X309234Y515414D01*
X310754Y518046D01*
X311540Y520981D01*
Y524019D01*
X310754Y526954D01*
X309234Y529586D01*
X307086Y531734D01*
X304454Y533254D01*
X301519Y534040D01*
X298481D01*
X295546Y533254D01*
X292914Y531734D01*
X290766Y529586D01*
X289247Y526954D01*
X288624Y524633D01*
X287354Y524800D01*
Y530510D01*
X294560Y537716D01*
X295546Y537146D01*
X298481Y536360D01*
X301519D01*
X304454Y537146D01*
X307086Y538666D01*
X309234Y540814D01*
X310754Y543446D01*
X311540Y546381D01*
Y549419D01*
X310754Y552354D01*
X309234Y554986D01*
X307086Y557134D01*
X304454Y558653D01*
X301519Y559440D01*
X298481D01*
X295546Y558653D01*
X292914Y557134D01*
X290766Y554986D01*
X289247Y552354D01*
X288460Y549419D01*
Y546381D01*
X289247Y543446D01*
X289816Y542460D01*
X281628Y534272D01*
X280901Y533184D01*
X280835Y532850D01*
X279564Y532975D01*
Y553790D01*
X279309Y555074D01*
X278582Y556162D01*
X267554Y567190D01*
X267836Y568460D01*
X269619D01*
X272554Y569247D01*
X275186Y570766D01*
X277334Y572914D01*
X278853Y575546D01*
X279640Y578481D01*
Y581519D01*
X278853Y584454D01*
X277334Y587086D01*
X275186Y589234D01*
X272554Y590754D01*
X269619Y591540D01*
D02*
G37*
G36*
X93219Y591240D02*
X90181D01*
X87246Y590454D01*
X84614Y588934D01*
X82466Y586786D01*
X80946Y584154D01*
X80160Y581219D01*
Y578181D01*
X80946Y575246D01*
X82466Y572614D01*
X84614Y570466D01*
X87246Y568946D01*
X90181Y568160D01*
X93219D01*
X96154Y568946D01*
X98786Y570466D01*
X100934Y572614D01*
X102453Y575246D01*
X103240Y578181D01*
Y581219D01*
X102453Y584154D01*
X100934Y586786D01*
X98786Y588934D01*
X96154Y590454D01*
X93219Y591240D01*
D02*
G37*
G36*
X67819D02*
X64781D01*
X61846Y590454D01*
X59214Y588934D01*
X57066Y586786D01*
X55546Y584154D01*
X54760Y581219D01*
Y578181D01*
X55546Y575246D01*
X57066Y572614D01*
X59214Y570466D01*
X61846Y568946D01*
X64781Y568160D01*
X67819D01*
X70754Y568946D01*
X73386Y570466D01*
X75534Y572614D01*
X77053Y575246D01*
X77840Y578181D01*
Y581219D01*
X77053Y584154D01*
X75534Y586786D01*
X73386Y588934D01*
X70754Y590454D01*
X67819Y591240D01*
D02*
G37*
G36*
X262102Y373540D02*
X259898D01*
X257862Y372697D01*
X256303Y371138D01*
X255460Y369102D01*
Y366917D01*
X255403Y366862D01*
X254370Y366212D01*
X254011Y366570D01*
X251975Y367413D01*
X249771D01*
X248810Y367015D01*
X247540Y367864D01*
Y368102D01*
X246697Y370138D01*
X245138Y371697D01*
X243102Y372540D01*
X240898D01*
X238862Y371697D01*
X237303Y370138D01*
X236460Y368102D01*
Y365898D01*
X237303Y363862D01*
X238862Y362303D01*
X239500Y362039D01*
Y361141D01*
X239755Y359855D01*
X240484Y358765D01*
X255140Y344108D01*
Y331500D01*
X255396Y330214D01*
X256124Y329124D01*
X297521Y287729D01*
Y184771D01*
X198497Y85748D01*
X147388D01*
X146103Y85492D01*
X145013Y84764D01*
X132005Y71756D01*
X131277Y70666D01*
X131021Y69380D01*
Y65515D01*
X128432Y64822D01*
X126028Y63434D01*
X124066Y61472D01*
X122678Y59068D01*
X121960Y56388D01*
Y53612D01*
X122678Y50932D01*
X124066Y48528D01*
X126028Y46566D01*
X128432Y45178D01*
X131112Y44460D01*
X133888D01*
X136568Y45178D01*
X138972Y46566D01*
X140934Y48528D01*
X142322Y50932D01*
X143040Y53612D01*
Y56388D01*
X142322Y59068D01*
X140934Y61472D01*
X138972Y63434D01*
X137740Y64145D01*
Y67989D01*
X148780Y79029D01*
X160118D01*
X160604Y77856D01*
X156624Y73875D01*
X155896Y72786D01*
X155640Y71500D01*
Y65306D01*
X153832Y64822D01*
X151428Y63434D01*
X149466Y61472D01*
X148078Y59068D01*
X147360Y56388D01*
Y53612D01*
X148078Y50932D01*
X149466Y48528D01*
X151428Y46566D01*
X153832Y45178D01*
X156512Y44460D01*
X159288D01*
X161968Y45178D01*
X164372Y46566D01*
X166334Y48528D01*
X167722Y50932D01*
X168440Y53612D01*
Y56388D01*
X167722Y59068D01*
X166334Y61472D01*
X164372Y63434D01*
X162360Y64596D01*
Y70108D01*
X166392Y74141D01*
X195431D01*
X195917Y72967D01*
X187624Y64674D01*
X187368Y64822D01*
X184688Y65540D01*
X181912D01*
X179232Y64822D01*
X176828Y63434D01*
X174866Y61472D01*
X173478Y59068D01*
X172760Y56388D01*
Y53612D01*
X173478Y50932D01*
X174866Y48528D01*
X176828Y46566D01*
X179232Y45178D01*
X181912Y44460D01*
X184688D01*
X187368Y45178D01*
X189772Y46566D01*
X191734Y48528D01*
X193122Y50932D01*
X193840Y53612D01*
Y56388D01*
X193122Y59068D01*
X192535Y60084D01*
X204167Y71715D01*
X205340Y71229D01*
Y65012D01*
X204632Y64822D01*
X202228Y63434D01*
X200266Y61472D01*
X198878Y59068D01*
X198160Y56388D01*
Y53612D01*
X198878Y50932D01*
X200266Y48528D01*
X202228Y46566D01*
X204632Y45178D01*
X207312Y44460D01*
X210088D01*
X212768Y45178D01*
X215172Y46566D01*
X217134Y48528D01*
X218522Y50932D01*
X219240Y53612D01*
Y56388D01*
X218522Y59068D01*
X217134Y61472D01*
X215172Y63434D01*
X212768Y64822D01*
X212059Y65012D01*
Y75308D01*
X312376Y175625D01*
X313104Y176714D01*
X313360Y178000D01*
Y292898D01*
X313104Y294183D01*
X312376Y295273D01*
X271360Y336289D01*
Y363000D01*
X271104Y364286D01*
X270375Y365376D01*
X268370Y367381D01*
X267280Y368109D01*
X266752Y368214D01*
X266540Y368426D01*
Y369102D01*
X265697Y371138D01*
X264138Y372697D01*
X262102Y373540D01*
D02*
G37*
G36*
X162102Y339540D02*
X159898D01*
X157862Y338697D01*
X156303Y337138D01*
X155460Y335102D01*
Y332898D01*
X155578Y332613D01*
X154648Y331540D01*
X152898D01*
X150862Y330697D01*
X149303Y329138D01*
X148460Y327102D01*
Y324898D01*
X149303Y322862D01*
X150862Y321303D01*
X152898Y320460D01*
X155102D01*
X157138Y321303D01*
X157950Y322115D01*
X167000D01*
X168487Y322411D01*
X169747Y323253D01*
X171432Y324938D01*
X172508Y324218D01*
X172460Y324102D01*
Y321898D01*
X173303Y319862D01*
X174862Y318303D01*
X176898Y317460D01*
X179102D01*
X181138Y318303D01*
X181950Y319115D01*
X212135D01*
X220784Y310467D01*
X220004Y309450D01*
X218668Y310222D01*
X215988Y310940D01*
X213212D01*
X210532Y310222D01*
X208128Y308834D01*
X206166Y306872D01*
X204778Y304468D01*
X204060Y301787D01*
Y299012D01*
X204778Y296332D01*
X206166Y293928D01*
X208128Y291966D01*
X210532Y290578D01*
X213212Y289860D01*
X215988D01*
X218668Y290578D01*
X221072Y291966D01*
X221845Y292739D01*
X223115Y292213D01*
Y285000D01*
X223411Y283513D01*
X224253Y282253D01*
X229599Y276907D01*
X229460Y276388D01*
Y273612D01*
X230178Y270932D01*
X231566Y268528D01*
X233528Y266566D01*
X235932Y265178D01*
X238612Y264460D01*
X241388D01*
X244068Y265178D01*
X246472Y266566D01*
X248434Y268528D01*
X249822Y270932D01*
X250540Y273612D01*
Y276388D01*
X249822Y279068D01*
X248434Y281472D01*
X246472Y283434D01*
X244068Y284822D01*
X241388Y285540D01*
X238612D01*
X235932Y284822D01*
X233865Y283629D01*
X230885Y286609D01*
Y292813D01*
X232155Y293340D01*
X233528Y291966D01*
X235932Y290578D01*
X238612Y289860D01*
X241388D01*
X244068Y290578D01*
X246472Y291966D01*
X248434Y293928D01*
X249822Y296332D01*
X250540Y299012D01*
Y301787D01*
X250142Y303272D01*
X251182Y304298D01*
X252000Y304136D01*
X254446D01*
X255219Y303128D01*
X254860Y301787D01*
Y299012D01*
X255578Y296332D01*
X256966Y293928D01*
X258928Y291966D01*
X261332Y290578D01*
X264012Y289860D01*
X266788D01*
X269468Y290578D01*
X271872Y291966D01*
X273834Y293928D01*
X275222Y296332D01*
X275940Y299012D01*
Y301787D01*
X275222Y304468D01*
X273834Y306872D01*
X271872Y308834D01*
X269468Y310222D01*
X266788Y310940D01*
X264012D01*
X261332Y310222D01*
X261149Y310116D01*
X260532Y310732D01*
X259279Y311570D01*
X257800Y311864D01*
X253601D01*
X249732Y315732D01*
X248479Y316570D01*
X247000Y316864D01*
X238601D01*
X218732Y336732D01*
X217479Y337570D01*
X216000Y337864D01*
X164970D01*
X164138Y338697D01*
X162102Y339540D01*
D02*
G37*
G36*
X266788Y285540D02*
X264012D01*
X261332Y284822D01*
X258928Y283434D01*
X256966Y281472D01*
X255578Y279068D01*
X254860Y276388D01*
Y273612D01*
X255578Y270932D01*
X256966Y268528D01*
X258928Y266566D01*
X261332Y265178D01*
X264012Y264460D01*
X266788D01*
X269468Y265178D01*
X271872Y266566D01*
X273834Y268528D01*
X275222Y270932D01*
X275940Y273612D01*
Y276388D01*
X275222Y279068D01*
X273834Y281472D01*
X271872Y283434D01*
X269468Y284822D01*
X266788Y285540D01*
D02*
G37*
G36*
X215988D02*
X213212D01*
X210532Y284822D01*
X208128Y283434D01*
X206166Y281472D01*
X204778Y279068D01*
X204060Y276388D01*
Y273612D01*
X204778Y270932D01*
X206166Y268528D01*
X208128Y266566D01*
X210532Y265178D01*
X213212Y264460D01*
X215988D01*
X218668Y265178D01*
X221072Y266566D01*
X223034Y268528D01*
X224422Y270932D01*
X225140Y273612D01*
Y276388D01*
X224422Y279068D01*
X223034Y281472D01*
X221072Y283434D01*
X218668Y284822D01*
X215988Y285540D01*
D02*
G37*
G36*
X18624Y226040D02*
X16376D01*
X14204Y225458D01*
X12256Y224334D01*
X10666Y222744D01*
X9542Y220796D01*
X8960Y218624D01*
Y216376D01*
X9542Y214204D01*
X10666Y212256D01*
X12256Y210666D01*
X14204Y209542D01*
X16376Y208960D01*
X18624D01*
X20796Y209542D01*
X22744Y210666D01*
X24334Y212256D01*
X25458Y214204D01*
X26040Y216376D01*
Y218624D01*
X25458Y220796D01*
X24334Y222744D01*
X22744Y224334D01*
X20796Y225458D01*
X18624Y226040D01*
D02*
G37*
G36*
Y182040D02*
X16376D01*
X14204Y181458D01*
X12256Y180334D01*
X10666Y178744D01*
X9542Y176796D01*
X8960Y174624D01*
Y172376D01*
X9542Y170204D01*
X10666Y168256D01*
X12256Y166666D01*
X14204Y165542D01*
X16376Y164960D01*
X18624D01*
X20796Y165542D01*
X22744Y166666D01*
X24334Y168256D01*
X25458Y170204D01*
X26040Y172376D01*
Y174624D01*
X25458Y176796D01*
X24334Y178744D01*
X22744Y180334D01*
X20796Y181458D01*
X18624Y182040D01*
D02*
G37*
G36*
X108488Y65540D02*
X105712D01*
X103032Y64822D01*
X100628Y63434D01*
X98666Y61472D01*
X97278Y59068D01*
X96560Y56388D01*
Y53612D01*
X97278Y50932D01*
X98666Y48528D01*
X100628Y46566D01*
X103032Y45178D01*
X105712Y44460D01*
X108488D01*
X111168Y45178D01*
X113572Y46566D01*
X115534Y48528D01*
X116922Y50932D01*
X117640Y53612D01*
Y56388D01*
X116922Y59068D01*
X115534Y61472D01*
X113572Y63434D01*
X111168Y64822D01*
X108488Y65540D01*
D02*
G37*
%LPD*%
G36*
X177612Y502803D02*
X179648Y501960D01*
X180420D01*
X180946Y500690D01*
X174361Y494104D01*
X158008D01*
X157522Y495278D01*
X166390Y504146D01*
X176270D01*
X177612Y502803D01*
D02*
G37*
G36*
X196758Y503151D02*
X198042Y502896D01*
X255720D01*
X256710Y501906D01*
X258746Y501062D01*
X260536D01*
X261140Y499871D01*
X245073Y483804D01*
X243828Y484052D01*
X243687Y484392D01*
X242128Y485950D01*
X240092Y486794D01*
X237888D01*
X235852Y485950D01*
X234510Y484608D01*
X228499D01*
X227215Y484353D01*
X226127Y483626D01*
X212028Y469526D01*
X210854Y470012D01*
Y478020D01*
X212197Y479362D01*
X213040Y481398D01*
Y483602D01*
X212197Y485638D01*
X210638Y487197D01*
X208602Y488040D01*
X208113D01*
X207540Y488898D01*
Y491102D01*
X206697Y493138D01*
X205138Y494697D01*
X203102Y495540D01*
X200898D01*
X198862Y494697D01*
X197303Y493138D01*
X196460Y491102D01*
Y488898D01*
X197303Y486862D01*
X198386Y485780D01*
Y477961D01*
X198641Y476675D01*
X199140Y475928D01*
Y469471D01*
X197871Y469218D01*
X197697Y469638D01*
X196138Y471197D01*
X194102Y472040D01*
X191898D01*
X189862Y471197D01*
X189061Y470396D01*
X187791Y470922D01*
Y486824D01*
X188762Y487796D01*
X189606Y489832D01*
Y492036D01*
X188762Y494072D01*
X187204Y495631D01*
X186966Y495729D01*
X186719Y496975D01*
X190364Y500620D01*
X191102D01*
X193138Y501463D01*
X194697Y503022D01*
X194748Y503146D01*
X196262Y503482D01*
X196758Y503151D01*
D02*
G37*
G36*
X181082Y478588D02*
Y450303D01*
X180110Y449331D01*
X179267Y447295D01*
Y445091D01*
X180110Y443055D01*
X181669Y441497D01*
X183705Y440653D01*
X185909D01*
X187945Y441497D01*
X189503Y443055D01*
X190347Y445091D01*
Y447295D01*
X189859Y448473D01*
X190831Y449445D01*
X191398Y449210D01*
X193602D01*
X194460Y448191D01*
Y447148D01*
X195303Y445112D01*
X196862Y443553D01*
X198898Y442710D01*
X201102D01*
X203138Y443553D01*
X204697Y445112D01*
X205540Y447148D01*
Y449352D01*
X204697Y451388D01*
X203360Y452725D01*
Y455146D01*
X204629Y455621D01*
X206521Y454837D01*
X208725D01*
X209014Y454957D01*
X209325Y454750D01*
X210168Y452714D01*
X211727Y451155D01*
X211964Y451057D01*
X212212Y449811D01*
X191815Y429414D01*
X156060D01*
X154776Y429159D01*
X153688Y428432D01*
X148796Y423540D01*
X147898D01*
X145862Y422697D01*
X145675Y422510D01*
X144502Y422996D01*
Y451845D01*
X145675Y452331D01*
X149982Y448024D01*
X149877Y447769D01*
Y445565D01*
X150720Y443529D01*
X152279Y441970D01*
X154315Y441127D01*
X156519D01*
X158555Y441970D01*
X160113Y443529D01*
X160957Y445565D01*
Y447769D01*
X160113Y449805D01*
X158555Y451363D01*
X156519Y452207D01*
X155287D01*
X147532Y459962D01*
Y465883D01*
X148588Y466589D01*
X148898Y466460D01*
X151102D01*
X153138Y467303D01*
X154697Y468862D01*
X155540Y470898D01*
Y473102D01*
X154697Y475138D01*
X154145Y475690D01*
X154671Y476960D01*
X154832D01*
X156868Y477803D01*
X157680Y478615D01*
X174564D01*
X175212Y478744D01*
X175898Y478460D01*
X178102D01*
X179812Y479168D01*
X181082Y478588D01*
D02*
G37*
G36*
X275205Y490099D02*
X275303Y489862D01*
X276862Y488303D01*
X278898Y487460D01*
X279057D01*
X279543Y486287D01*
X275796Y482540D01*
X273898D01*
X271862Y481697D01*
X270303Y480138D01*
X269460Y478102D01*
Y475898D01*
X270303Y473862D01*
X271862Y472303D01*
X273898Y471460D01*
X276102D01*
X278138Y472303D01*
X279697Y473862D01*
X280540Y475898D01*
Y477796D01*
X290082Y487338D01*
X290708Y488276D01*
X291176Y488484D01*
X292145Y488635D01*
X292914Y487866D01*
X294861Y486742D01*
Y477340D01*
X288460D01*
Y461527D01*
X282326Y455394D01*
X281212Y453727D01*
X280821Y451760D01*
Y415995D01*
X279551Y415147D01*
X278602Y415540D01*
X276398D01*
X274362Y414697D01*
X273020Y413354D01*
X199865D01*
X199327Y414442D01*
X199342Y414598D01*
X242935Y458191D01*
X243662Y459280D01*
X243854Y460242D01*
X273959Y490347D01*
X275205Y490099D01*
D02*
G37*
G36*
X166291Y414919D02*
X166480Y414849D01*
X167303Y412862D01*
X168862Y411303D01*
X170898Y410460D01*
X171062D01*
X171911Y409190D01*
X171460Y408102D01*
Y405898D01*
X172276Y403928D01*
X172161Y403689D01*
X171490Y402879D01*
X171102Y403040D01*
X168898D01*
X166862Y402197D01*
X165520Y400854D01*
X146889D01*
X144502Y403242D01*
Y413004D01*
X145675Y413490D01*
X145862Y413303D01*
X147898Y412460D01*
X150102D01*
X152138Y413303D01*
X153568Y414733D01*
X154333Y414753D01*
X154980Y414642D01*
X155303Y413862D01*
X156862Y412303D01*
X158898Y411460D01*
X161102D01*
X163138Y412303D01*
X164697Y413862D01*
X165190Y415053D01*
X166291Y414919D01*
D02*
G37*
G36*
X145500Y394146D02*
X165520D01*
X166862Y392803D01*
X168898Y391960D01*
X171102D01*
X171918Y392298D01*
X173188Y391449D01*
Y358384D01*
X165874D01*
X165025Y359655D01*
X165540Y360898D01*
Y363102D01*
X164697Y365138D01*
X163138Y366697D01*
X163104Y366711D01*
Y367250D01*
X162849Y368534D01*
X162122Y369622D01*
X151414Y380330D01*
Y384940D01*
X151159Y386224D01*
X150432Y387312D01*
X144743Y393001D01*
X145368Y394172D01*
X145500Y394146D01*
D02*
G37*
D14*
X192750Y455000D02*
Y466250D01*
X192500Y454750D02*
X192750Y455000D01*
Y466250D02*
X193000Y466500D01*
X155417Y446667D02*
Y447333D01*
X144177Y458573D02*
X155417Y447333D01*
X184436Y446564D02*
Y490564D01*
Y446564D02*
X184807Y446193D01*
X144177Y458573D02*
Y486677D01*
X184066Y490934D02*
X184436Y490564D01*
X245715Y580000D02*
X273180Y552535D01*
X256374Y560771D02*
X267120Y550025D01*
X270150Y499852D02*
Y551280D01*
X234503Y464205D02*
X270150Y499852D01*
X273180Y498597D02*
Y552535D01*
X237533Y462950D02*
X273180Y498597D01*
X231473Y465460D02*
X267120Y501107D01*
Y550025D01*
X256750Y564680D02*
X270150Y551280D01*
X259496Y506250D02*
X259848Y506602D01*
X198042Y506250D02*
X259496D01*
X132057Y391170D02*
X138401Y384826D01*
X138117Y394883D02*
X148060Y384940D01*
X138117Y498402D02*
X155995Y516280D01*
X138117Y394883D02*
Y498402D01*
X187276Y521960D02*
X204000D01*
X132057Y391170D02*
Y500912D01*
X185642Y519310D02*
X186153Y518799D01*
X186897Y522340D02*
X187276Y521960D01*
X154740Y519310D02*
X185642D01*
X186153Y518799D02*
X194063D01*
X135087Y392913D02*
X144768Y383233D01*
X135087Y499657D02*
X154740Y519310D01*
X132057Y500912D02*
X153485Y522340D01*
X135087Y392913D02*
Y499657D01*
X194063Y518799D02*
X196652Y516210D01*
X153485Y522340D02*
X186897D01*
X149139Y472861D02*
X150000Y472000D01*
X149139Y472861D02*
Y476490D01*
X246269Y512000D02*
X247487D01*
X141147Y401853D02*
X145500Y397500D01*
X141147Y401853D02*
Y497147D01*
X184387Y516280D02*
X184898Y515769D01*
X141147Y497147D02*
X151430Y507430D01*
X244170Y514100D02*
X246269Y512000D01*
X184898Y515769D02*
X192808D01*
X241487Y514100D02*
X244170D01*
X192808Y515769D02*
X198116Y510460D01*
X237848D02*
X241487Y514100D01*
X198116Y510460D02*
X237848D01*
X155995Y516280D02*
X184387D01*
X204790Y522750D02*
X252572D01*
X196652Y516210D02*
X235210D01*
X236000Y517000D01*
X191553Y512739D02*
X198042Y506250D01*
X252572Y522750D02*
X253237Y523415D01*
X204000Y521960D02*
X204790Y522750D01*
X194970Y410000D02*
X277500D01*
X207623Y460377D02*
X228499Y481254D01*
X238990D01*
X207500Y460500D02*
X207623Y460377D01*
X207500Y460500D02*
Y482500D01*
X214865Y455852D02*
X225723Y466710D01*
X214865Y455852D02*
X214865D01*
X225723Y466710D02*
Y466710D01*
X284000Y531900D02*
X300000Y547900D01*
X280000Y493000D02*
X284000Y497000D01*
Y531900D01*
X287710Y510210D02*
X300000Y522500D01*
X287710Y489710D02*
Y510210D01*
X275000Y477000D02*
X287710Y489710D01*
X194460Y423030D02*
X234503Y463073D01*
X231473Y464328D02*
Y465460D01*
X240563Y461695D02*
X276210Y497342D01*
X240563Y460563D02*
Y461695D01*
X195715Y420000D02*
X237533Y461818D01*
X176485Y420000D02*
X195715D01*
X193809Y416970D02*
X196970D01*
X234503Y463073D02*
Y464205D01*
X237533Y461818D02*
Y462950D01*
X156060Y426060D02*
X193205D01*
X276210Y497342D02*
Y553790D01*
X164030Y423030D02*
X194460D01*
X193205Y426060D02*
X231473Y464328D01*
X196970Y416970D02*
X240563Y460563D01*
X264000Y566000D02*
X276210Y553790D01*
X148060Y378940D02*
X159750Y367250D01*
Y362250D02*
X160000Y362000D01*
X159750Y362250D02*
Y367250D01*
X148060Y378940D02*
Y384940D01*
X144768Y371768D02*
Y383233D01*
X145500Y397500D02*
X170000D01*
X144000Y371000D02*
X144768Y371768D01*
X138401Y381599D02*
X139000Y381000D01*
X138401Y381599D02*
Y384826D01*
X144177Y486677D02*
X165000Y507500D01*
X147500Y478129D02*
X149139Y476490D01*
X147500Y478129D02*
Y484672D01*
X153579Y490750D01*
X175750D01*
X190000Y505000D01*
Y506160D01*
X165000Y507500D02*
X180750D01*
X157524Y513250D02*
X183132D01*
X183643Y512739D02*
X191553D01*
X183132Y513250D02*
X183643Y512739D01*
X151704Y507430D02*
X157524Y513250D01*
X190152Y389848D02*
Y406687D01*
Y389848D02*
X191000Y389000D01*
X189220Y407618D02*
Y412382D01*
Y407618D02*
X190152Y406687D01*
X176542Y356543D02*
Y406543D01*
X177000Y407000D01*
X182292Y399865D02*
X182646Y399511D01*
Y357646D02*
Y399511D01*
X172485Y416000D02*
X176485Y420000D01*
X172000Y416000D02*
X172485D01*
X160861Y419861D02*
X164030Y423030D01*
X160000Y417000D02*
X160861Y417861D01*
Y419861D01*
X149000Y418000D02*
Y419000D01*
X156060Y426060D01*
X268100Y575535D02*
Y580000D01*
X264000Y566000D02*
Y571435D01*
X268100Y575535D01*
X211329Y560771D02*
X256374D01*
X242900Y580000D02*
X245715D01*
X232820Y564680D02*
X256750D01*
X192100Y580000D02*
X211329Y560771D01*
X189220Y412382D02*
X193809Y416970D01*
X175030Y355030D02*
X176542Y356543D01*
X177000Y352000D02*
X182646Y357646D01*
X75040Y275000D02*
X115000D01*
X121750Y281750D01*
X217500Y580000D02*
X232820Y564680D01*
X121750Y281750D02*
Y346750D01*
X127500Y317500D02*
X128250Y318250D01*
Y328586D01*
X121750Y346750D02*
X130030Y355030D01*
X125530Y346245D02*
X131285Y352000D01*
X125530Y331306D02*
X128250Y328586D01*
X125530Y331306D02*
Y346245D01*
X130030Y355030D02*
X175030D01*
X131285Y352000D02*
X177000D01*
X151430Y507430D02*
X151704D01*
D78*
X213744Y323000D02*
X227000Y309744D01*
X178000Y323000D02*
X213744D01*
X240000Y300400D02*
Y302500D01*
X227000Y285000D02*
Y309744D01*
X212750Y329750D02*
X240000Y302500D01*
X170750Y329750D02*
X212750D01*
X153730Y482500D02*
X174564D01*
X176064Y484000D02*
X177000D01*
X174564Y482500D02*
X176064Y484000D01*
X154000Y326000D02*
X167000D01*
X170750Y329750D01*
X227000Y285000D02*
X237000Y275000D01*
X240000D01*
X52000Y370488D02*
Y476000D01*
Y370488D02*
X53488Y369000D01*
X117260D01*
X45000Y280716D02*
X60716Y265000D01*
X179200D02*
X189200Y275000D01*
X45000Y280716D02*
Y298551D01*
X60716Y265000D02*
X179200D01*
X42500Y301051D02*
Y301769D01*
Y301051D02*
X45000Y298551D01*
D79*
X49809Y244538D02*
Y254809D01*
X50000Y255000D01*
X46530Y241259D02*
X49809Y244538D01*
X46530Y143470D02*
Y241259D01*
X55000Y236200D02*
X68300Y249500D01*
X50000Y255000D02*
Y255005D01*
X35000Y270005D02*
X50000Y255005D01*
X35000Y270005D02*
Y367500D01*
X55000Y160000D02*
Y236200D01*
X150000Y136468D02*
X232468D01*
X53532D02*
X150000D01*
X282500Y349973D02*
Y404291D01*
X285960Y407751D02*
Y451760D01*
X282500Y404291D02*
X285960Y407751D01*
X35000Y367500D02*
Y457500D01*
Y475000D01*
X46530Y143470D02*
X53532Y136468D01*
X287500Y191500D02*
Y277500D01*
X232468Y136468D02*
X287500Y191500D01*
X285960Y451760D02*
X300000Y465800D01*
Y497100D01*
X72500Y512500D02*
X127500D01*
X35000Y475000D02*
X72500Y512500D01*
X67000Y148000D02*
X84000D01*
X55000Y160000D02*
X67000Y148000D01*
D81*
X25633Y195883D02*
X35000Y205250D01*
X17883Y195883D02*
X25633D01*
X17500Y195500D02*
X17883Y195883D01*
X35000Y205250D02*
Y255000D01*
X15000Y275000D02*
Y477100D01*
Y275000D02*
X35000Y255000D01*
X15000Y477100D02*
X68808Y530908D01*
Y531408D02*
X91700Y554300D01*
X68808Y530908D02*
Y531408D01*
D83*
X201745Y477961D02*
X202500Y477206D01*
Y464782D02*
Y477206D01*
X200000Y462282D02*
X202500Y464782D01*
X201745Y477961D02*
Y489745D01*
X200000Y448250D02*
Y462282D01*
X159000Y56100D02*
Y71500D01*
X157900Y55000D02*
X159000Y56100D01*
Y71500D02*
X165000Y77500D01*
X208700Y76700D02*
X310000Y178000D01*
X306960Y179259D02*
Y291638D01*
X183300Y55599D02*
X306960Y179259D01*
X183300Y55000D02*
Y55599D01*
X208700Y55000D02*
Y76700D01*
X310000Y178000D02*
Y292898D01*
X303920Y180621D02*
Y290379D01*
X165000Y77500D02*
X200799D01*
X303920Y180621D01*
X199888Y82388D02*
X300880Y183380D01*
X147388Y82388D02*
X199888D01*
X300880Y183380D02*
Y289120D01*
X134380Y56880D02*
Y69380D01*
X147388Y82388D01*
X132500Y55000D02*
X134380Y56880D01*
X261000Y359233D02*
Y359460D01*
X261569Y332730D02*
X303920Y290379D01*
X261000Y359233D02*
X264609Y355624D01*
Y333989D02*
X306960Y291638D01*
X250873Y361448D02*
X261569Y350752D01*
Y332730D02*
Y350752D01*
X264609Y333989D02*
Y355624D01*
X201745Y489745D02*
X202000Y490000D01*
X250873Y361448D02*
Y361873D01*
X258500Y331500D02*
Y345500D01*
X242859Y361141D02*
Y366141D01*
Y361141D02*
X258500Y345500D01*
X261000Y368000D02*
X262215D01*
X265210Y365005D01*
X265995D02*
X268000Y363000D01*
X242000Y367000D02*
X242859Y366141D01*
X265210Y365005D02*
X265995D01*
X268000Y334898D02*
Y363000D01*
Y334898D02*
X310000Y292898D01*
X258500Y331500D02*
X300880Y289120D01*
D84*
X216000Y334000D02*
X237000Y313000D01*
X247000D01*
X161000Y334000D02*
X216000D01*
X252000Y308000D02*
X257800D01*
X247000Y313000D02*
X252000Y308000D01*
X257800D02*
X265400Y300400D01*
D86*
X91700Y579700D02*
D03*
X66300Y554300D02*
D03*
Y579700D02*
D03*
X300000Y497100D02*
D03*
Y522500D02*
D03*
Y547900D02*
D03*
X268100Y580000D02*
D03*
X242700D02*
D03*
X217300D02*
D03*
X300000Y389600D02*
D03*
Y415000D02*
D03*
Y440400D02*
D03*
D87*
X91700Y554300D02*
D03*
X191900Y580000D02*
D03*
D88*
X300000Y573300D02*
D03*
X300000Y465800D02*
D03*
D89*
X68300Y249500D02*
D03*
X17500Y217500D02*
D03*
X68300D02*
D03*
Y173500D02*
D03*
Y195500D02*
D03*
X17500Y173500D02*
D03*
Y195500D02*
D03*
Y249500D02*
D03*
D90*
X189200Y275000D02*
D03*
X214600Y300400D02*
D03*
Y275000D02*
D03*
X240000D02*
D03*
Y300400D02*
D03*
X265400D02*
D03*
Y275000D02*
D03*
X107100Y55000D02*
D03*
X157900D02*
D03*
X183300D02*
D03*
X208700D02*
D03*
X132500D02*
D03*
D91*
X189200Y300400D02*
D03*
X81700Y55000D02*
D03*
D92*
X193000Y466500D02*
D03*
X192500Y454750D02*
D03*
X196548Y475019D02*
D03*
X155417Y446667D02*
D03*
X184807Y446193D02*
D03*
X10000Y100000D02*
D03*
X250000D02*
D03*
X200000D02*
D03*
X190000D02*
D03*
X180000D02*
D03*
X130000D02*
D03*
X120000D02*
D03*
X110000D02*
D03*
X100000D02*
D03*
X90000D02*
D03*
X80000D02*
D03*
X70000D02*
D03*
X60000D02*
D03*
X50000D02*
D03*
X40000D02*
D03*
X30000D02*
D03*
X20000D02*
D03*
X259848Y506602D02*
D03*
X268000Y425750D02*
D03*
X119250Y493750D02*
D03*
X222000Y337000D02*
D03*
X150000Y472000D02*
D03*
X42500Y575000D02*
D03*
X233000Y444000D02*
D03*
X247487Y512000D02*
D03*
X236000Y517000D02*
D03*
X253237Y523415D02*
D03*
X277500Y410000D02*
D03*
X250000Y463000D02*
D03*
X238990Y481254D02*
D03*
X235900Y489215D02*
D03*
X214865Y455852D02*
D03*
X207623Y460377D02*
D03*
X200000Y448250D02*
D03*
X208000Y498000D02*
D03*
X224000Y533000D02*
D03*
X172000Y536000D02*
D03*
X275000Y477000D02*
D03*
X280000Y493000D02*
D03*
X251000Y535000D02*
D03*
X156000Y384000D02*
D03*
X197000Y367000D02*
D03*
X92000Y440000D02*
D03*
X158000Y580000D02*
D03*
X160000Y362000D02*
D03*
X144000Y371000D02*
D03*
X139000Y379000D02*
D03*
X153730Y482500D02*
D03*
X35000Y367500D02*
D03*
X50000Y255000D02*
D03*
X150000Y136000D02*
D03*
X35000Y457500D02*
D03*
X127500Y512500D02*
D03*
X190000Y506160D02*
D03*
X161000Y334000D02*
D03*
X178000Y323000D02*
D03*
X154000Y326000D02*
D03*
X180750Y507500D02*
D03*
X204818Y535545D02*
D03*
X250000Y330000D02*
D03*
X75000Y472500D02*
D03*
X97500Y332500D02*
D03*
X65000Y352500D02*
D03*
X184066Y490934D02*
D03*
X117260Y369000D02*
D03*
X52000Y476000D02*
D03*
X191000Y389000D02*
D03*
X177000Y407000D02*
D03*
X182292Y399865D02*
D03*
X172000Y416000D02*
D03*
X160000Y417000D02*
D03*
X149000Y418000D02*
D03*
X202000Y490000D02*
D03*
X177000Y484000D02*
D03*
X250873Y361873D02*
D03*
X261000Y368000D02*
D03*
Y359460D02*
D03*
X242000Y367000D02*
D03*
X42500Y301769D02*
D03*
X84000Y148000D02*
D03*
X207500Y482500D02*
D03*
X194970Y410000D02*
D03*
X225723Y466710D02*
D03*
X170000Y397500D02*
D03*
X75040Y275000D02*
D03*
X204000Y521960D02*
D03*
X127500Y317500D02*
D03*
D93*
X301000Y356000D02*
D03*
X271000Y236000D02*
D03*
X256000Y206000D02*
D03*
X271000Y116000D02*
D03*
X241000Y236000D02*
D03*
X226000Y206000D02*
D03*
X241000Y176000D02*
D03*
Y56000D02*
D03*
X226000Y26000D02*
D03*
X211000Y236000D02*
D03*
X196000Y206000D02*
D03*
X211000Y176000D02*
D03*
Y116000D02*
D03*
X196000Y26000D02*
D03*
X181000Y236000D02*
D03*
X166000Y206000D02*
D03*
X181000Y176000D02*
D03*
Y116000D02*
D03*
X166000Y26000D02*
D03*
X151000Y296000D02*
D03*
Y236000D02*
D03*
X136000Y206000D02*
D03*
X151000Y176000D02*
D03*
X136000Y26000D02*
D03*
X106000Y86000D02*
D03*
Y26000D02*
D03*
X76000Y86000D02*
D03*
Y26000D02*
D03*
X46000Y86000D02*
D03*
X61000Y56000D02*
D03*
X46000Y26000D02*
D03*
X16000Y86000D02*
D03*
X31000Y56000D02*
D03*
X16000Y26000D02*
D03*
D94*
X22500Y577500D02*
D03*
X295000Y130000D02*
D03*
D95*
X287500Y277500D02*
D03*
X282500Y349973D02*
D03*
M02*
