G04*
G04 #@! TF.GenerationSoftware,Altium Limited,Altium Designer,22.9.1 (49)*
G04*
G04 Layer_Color=32896*
%FSLAX44Y44*%
%MOMM*%
G71*
G04*
G04 #@! TF.SameCoordinates,7A88E338-F056-4336-BEC6-008BA3D2BE7B*
G04*
G04*
G04 #@! TF.FilePolarity,Positive*
G04*
G01*
G75*
%ADD10C,0.2000*%
%ADD12C,0.1000*%
%ADD14C,0.1500*%
D10*
X0Y100000D02*
X263000D01*
D12*
X21200Y1000D02*
X31200D01*
X21200D02*
Y11000D01*
X269200Y1000D02*
Y11000D01*
X259200Y1000D02*
X269200D01*
X259200Y429000D02*
X269200D01*
Y419000D02*
Y429000D01*
X22200Y419000D02*
Y429000D01*
X32200D01*
D14*
X165725Y249750D02*
X165249Y248798D01*
X163820Y247370D01*
X173818D01*
X169534Y234563D02*
Y225993D01*
X166201Y208045D02*
X165249Y208521D01*
X164296Y209473D01*
X163820Y210425D01*
Y212330D01*
X164296Y213282D01*
X165249Y214234D01*
X166201Y214710D01*
X167629Y215186D01*
X170010D01*
X171438Y214710D01*
X172390Y214234D01*
X173342Y213282D01*
X173818Y212330D01*
Y210425D01*
X173342Y209473D01*
X172390Y208521D01*
X171438Y208045D01*
X170010D01*
Y210425D02*
Y208045D01*
X163820Y205760D02*
X173818D01*
X163820D02*
X173818Y199094D01*
X163820D02*
X173818D01*
X163820Y196333D02*
X173818D01*
X163820D02*
Y193000D01*
X164296Y191572D01*
X165249Y190620D01*
X166201Y190144D01*
X167629Y189668D01*
X170010D01*
X171438Y190144D01*
X172390Y190620D01*
X173342Y191572D01*
X173818Y193000D01*
Y196333D01*
X181798Y249274D02*
X181322D01*
X180370Y248798D01*
X179894Y248322D01*
X179418Y247370D01*
Y245465D01*
X179894Y244513D01*
X180370Y244037D01*
X181322Y243561D01*
X182274D01*
X183227Y244037D01*
X184655Y244989D01*
X189416Y249750D01*
Y243085D01*
X185131Y232992D02*
Y224422D01*
X179418Y213615D02*
X189416Y209806D01*
X179418Y205998D02*
X189416Y209806D01*
X181798Y197571D02*
X180846Y198047D01*
X179894Y198999D01*
X179418Y199951D01*
Y201856D01*
X179894Y202808D01*
X180846Y203760D01*
X181798Y204236D01*
X183227Y204712D01*
X185607D01*
X187035Y204236D01*
X187987Y203760D01*
X188940Y202808D01*
X189416Y201856D01*
Y199951D01*
X188940Y198999D01*
X187987Y198047D01*
X187035Y197571D01*
X181798Y187621D02*
X180846Y188097D01*
X179894Y189049D01*
X179418Y190001D01*
Y191905D01*
X179894Y192857D01*
X180846Y193810D01*
X181798Y194286D01*
X183227Y194762D01*
X185607D01*
X187035Y194286D01*
X187987Y193810D01*
X188940Y192857D01*
X189416Y191905D01*
Y190001D01*
X188940Y189049D01*
X187987Y188097D01*
X187035Y187621D01*
X195015Y248798D02*
Y243561D01*
X198824Y246417D01*
Y244989D01*
X199300Y244037D01*
X199776Y243561D01*
X201204Y243085D01*
X202157D01*
X203585Y243561D01*
X204537Y244513D01*
X205013Y245941D01*
Y247370D01*
X204537Y248798D01*
X204061Y249274D01*
X203109Y249750D01*
X200728Y232992D02*
Y224422D01*
X195015Y213615D02*
X205013D01*
X195015D02*
Y209330D01*
X195491Y207902D01*
X195967Y207426D01*
X196920Y206950D01*
X197872D01*
X198824Y207426D01*
X199300Y207902D01*
X199776Y209330D01*
Y213615D01*
Y210282D02*
X205013Y206950D01*
X196444Y198047D02*
X195491Y198999D01*
X195015Y200427D01*
Y202332D01*
X195491Y203760D01*
X196444Y204712D01*
X197396D01*
X198348Y204236D01*
X198824Y203760D01*
X199300Y202808D01*
X200252Y199951D01*
X200728Y198999D01*
X201204Y198523D01*
X202157Y198047D01*
X203585D01*
X204537Y198999D01*
X205013Y200427D01*
Y202332D01*
X204537Y203760D01*
X203585Y204712D01*
X195015Y192477D02*
X205013D01*
X195015Y195809D02*
Y189144D01*
X210613Y244989D02*
X217278Y249750D01*
Y242609D01*
X210613Y244989D02*
X220611D01*
X216326Y232992D02*
Y224422D01*
X210613Y213615D02*
X220611D01*
X210613D02*
X220611Y206950D01*
X210613D02*
X220611D01*
X212041Y197523D02*
X211089Y198475D01*
X210613Y199904D01*
Y201808D01*
X211089Y203236D01*
X212041Y204188D01*
X212993D01*
X213945Y203712D01*
X214421Y203236D01*
X214897Y202284D01*
X215850Y199428D01*
X216326Y198475D01*
X216802Y197999D01*
X217754Y197523D01*
X219182D01*
X220134Y198475D01*
X220611Y199904D01*
Y201808D01*
X220134Y203236D01*
X219182Y204188D01*
X212041Y188620D02*
X211089Y189573D01*
X210613Y191001D01*
Y192905D01*
X211089Y194333D01*
X212041Y195286D01*
X212993D01*
X213945Y194809D01*
X214421Y194333D01*
X214897Y193381D01*
X215850Y190525D01*
X216326Y189573D01*
X216802Y189096D01*
X217754Y188620D01*
X219182D01*
X220134Y189573D01*
X220611Y191001D01*
Y192905D01*
X220134Y194333D01*
X219182Y195286D01*
X226210Y244037D02*
Y248798D01*
X230495Y249274D01*
X230019Y248798D01*
X229543Y247370D01*
Y245941D01*
X230019Y244513D01*
X230971Y243561D01*
X232399Y243085D01*
X233351D01*
X234780Y243561D01*
X235732Y244513D01*
X236208Y245941D01*
Y247370D01*
X235732Y248798D01*
X235256Y249274D01*
X234303Y249750D01*
X231923Y232992D02*
Y224422D01*
X227638Y206950D02*
X226686Y207902D01*
X226210Y209330D01*
Y211234D01*
X226686Y212663D01*
X227638Y213615D01*
X228590D01*
X229543Y213139D01*
X230019Y212663D01*
X230495Y211711D01*
X231447Y208854D01*
X231923Y207902D01*
X232399Y207426D01*
X233351Y206950D01*
X234780D01*
X235732Y207902D01*
X236208Y209330D01*
Y211234D01*
X235732Y212663D01*
X234780Y213615D01*
X228590Y197571D02*
X227638Y198047D01*
X226686Y198999D01*
X226210Y199951D01*
Y201856D01*
X226686Y202808D01*
X227638Y203760D01*
X228590Y204236D01*
X230019Y204712D01*
X232399D01*
X233827Y204236D01*
X234780Y203760D01*
X235732Y202808D01*
X236208Y201856D01*
Y199951D01*
X235732Y198999D01*
X234780Y198047D01*
X233827Y197571D01*
X226210Y194762D02*
X236208D01*
X226210Y188097D02*
X232875Y194762D01*
X230495Y192381D02*
X236208Y188097D01*
X243236Y244037D02*
X242283Y244513D01*
X241807Y245941D01*
Y246894D01*
X242283Y248322D01*
X243712Y249274D01*
X246092Y249750D01*
X248473D01*
X250377Y249274D01*
X251329Y248322D01*
X251805Y246894D01*
Y246417D01*
X251329Y244989D01*
X250377Y244037D01*
X248949Y243561D01*
X248473D01*
X247044Y244037D01*
X246092Y244989D01*
X245616Y246417D01*
Y246894D01*
X246092Y248322D01*
X247044Y249274D01*
X248473Y249750D01*
X247520Y233515D02*
Y224946D01*
X241807Y214139D02*
X251805D01*
X241807D02*
X251805Y210330D01*
X241807Y206521D02*
X251805Y210330D01*
X241807Y206521D02*
X251805D01*
X241807Y200808D02*
X242283Y201760D01*
X243236Y202712D01*
X244188Y203189D01*
X245616Y203665D01*
X247997D01*
X249425Y203189D01*
X250377Y202712D01*
X251329Y201760D01*
X251805Y200808D01*
Y198904D01*
X251329Y197952D01*
X250377Y196999D01*
X249425Y196523D01*
X247997Y196047D01*
X245616D01*
X244188Y196523D01*
X243236Y196999D01*
X242283Y197952D01*
X241807Y198904D01*
Y200808D01*
X243236Y187049D02*
X242283Y188001D01*
X241807Y189430D01*
Y191334D01*
X242283Y192762D01*
X243236Y193715D01*
X244188D01*
X245140Y193238D01*
X245616Y192762D01*
X246092Y191810D01*
X247044Y188954D01*
X247520Y188001D01*
X247997Y187525D01*
X248949Y187049D01*
X250377D01*
X251329Y188001D01*
X251805Y189430D01*
Y191334D01*
X251329Y192762D01*
X250377Y193715D01*
X241807Y184812D02*
X251805D01*
X257405Y243085D02*
X267403Y247846D01*
X257405Y249750D02*
Y243085D01*
X263118Y232992D02*
Y224422D01*
X257405Y213615D02*
X267403D01*
X257405D02*
X267403Y209806D01*
X257405Y205998D02*
X267403Y209806D01*
X257405Y205998D02*
X267403D01*
X257405Y203141D02*
X267403D01*
X258833Y194381D02*
X257881Y195333D01*
X257405Y196761D01*
Y198666D01*
X257881Y200094D01*
X258833Y201046D01*
X259785D01*
X260737Y200570D01*
X261213Y200094D01*
X261689Y199142D01*
X262642Y196285D01*
X263118Y195333D01*
X263594Y194857D01*
X264546Y194381D01*
X265974D01*
X266926Y195333D01*
X267403Y196761D01*
Y198666D01*
X266926Y200094D01*
X265974Y201046D01*
X257405Y189287D02*
X257881Y190239D01*
X258833Y191191D01*
X259785Y191667D01*
X261213Y192143D01*
X263594D01*
X265022Y191667D01*
X265974Y191191D01*
X266926Y190239D01*
X267403Y189287D01*
Y187383D01*
X266926Y186430D01*
X265974Y185478D01*
X265022Y185002D01*
X263594Y184526D01*
X261213D01*
X259785Y185002D01*
X258833Y185478D01*
X257881Y186430D01*
X257405Y187383D01*
Y189287D01*
X273002Y247370D02*
X273478Y248798D01*
X274430Y249274D01*
X275383D01*
X276335Y248798D01*
X276811Y247846D01*
X277287Y245941D01*
X277763Y244513D01*
X278715Y243561D01*
X279667Y243085D01*
X281096D01*
X282048Y243561D01*
X282524Y244037D01*
X283000Y245465D01*
Y247370D01*
X282524Y248798D01*
X282048Y249274D01*
X281096Y249750D01*
X279667D01*
X278715Y249274D01*
X277763Y248322D01*
X277287Y246894D01*
X276811Y244989D01*
X276335Y244037D01*
X275383Y243561D01*
X274430D01*
X273478Y244037D01*
X273002Y245465D01*
Y247370D01*
X278715Y232992D02*
Y224422D01*
X273002Y213615D02*
X283000D01*
X273002D02*
Y210282D01*
X273478Y208854D01*
X274430Y207902D01*
X275383Y207426D01*
X276811Y206950D01*
X279191D01*
X280620Y207426D01*
X281572Y207902D01*
X282524Y208854D01*
X283000Y210282D01*
Y213615D01*
X273002Y204712D02*
X283000D01*
X273002Y199761D02*
X273478Y200713D01*
X274430Y201665D01*
X275383Y202141D01*
X276811Y202617D01*
X279191D01*
X280620Y202141D01*
X281572Y201665D01*
X282524Y200713D01*
X283000Y199761D01*
Y197856D01*
X282524Y196904D01*
X281572Y195952D01*
X280620Y195476D01*
X279191Y195000D01*
X276811D01*
X275383Y195476D01*
X274430Y195952D01*
X273478Y196904D01*
X273002Y197856D01*
Y199761D01*
Y189811D02*
X273478Y191239D01*
X274907Y192191D01*
X277287Y192667D01*
X278715D01*
X281096Y192191D01*
X282524Y191239D01*
X283000Y189811D01*
Y188858D01*
X282524Y187430D01*
X281096Y186478D01*
X278715Y186002D01*
X277287D01*
X274907Y186478D01*
X273478Y187430D01*
X273002Y188858D01*
Y189811D01*
X68999Y136191D02*
Y130002D01*
X59001D01*
Y136191D01*
X64238Y130002D02*
Y133810D01*
X68999Y142618D02*
X62334Y137857D01*
Y144998D01*
X68999Y142618D02*
X59001D01*
X22749Y137679D02*
Y131490D01*
X12751D01*
Y137679D01*
X17988Y131490D02*
Y135299D01*
X22749Y140297D02*
Y145534D01*
X18940Y142678D01*
Y144106D01*
X18464Y145058D01*
X17988Y145534D01*
X16560Y146011D01*
X15608D01*
X14180Y145534D01*
X13227Y144582D01*
X12751Y143154D01*
Y141726D01*
X13227Y140297D01*
X13704Y139821D01*
X14656Y139345D01*
X147501Y581071D02*
Y587260D01*
X157499D01*
Y581071D01*
X152262Y587260D02*
Y583452D01*
X149882Y578929D02*
X149405D01*
X148453Y578453D01*
X147977Y577977D01*
X147501Y577024D01*
Y575120D01*
X147977Y574168D01*
X148453Y573692D01*
X149405Y573216D01*
X150358D01*
X151310Y573692D01*
X152738Y574644D01*
X157499Y579405D01*
Y572740D01*
X117351Y578779D02*
Y584968D01*
X127349D01*
Y578779D01*
X122112Y584968D02*
Y581159D01*
X119256Y577113D02*
X118779Y576160D01*
X117351Y574732D01*
X127349D01*
X236952Y28999D02*
X233143Y19001D01*
X229335Y28999D01*
X230763Y25666D02*
X235524D01*
X239285Y20905D02*
X240237Y20429D01*
X241665Y19001D01*
Y28999D01*
M02*
