G04*
G04 #@! TF.GenerationSoftware,Altium Limited,Altium Designer,22.9.1 (49)*
G04*
G04 Layer_Physical_Order=1*
G04 Layer_Color=255*
%FSLAX44Y44*%
%MOMM*%
G71*
G04*
G04 #@! TF.SameCoordinates,7A88E338-F056-4336-BEC6-008BA3D2BE7B*
G04*
G04*
G04 #@! TF.FilePolarity,Positive*
G04*
G01*
G75*
%ADD10C,0.2000*%
%ADD14C,0.1500*%
%ADD43C,0.7000*%
%ADD55R,1.3000X1.5000*%
%ADD56R,1.1000X1.0000*%
%ADD57R,1.0000X1.4000*%
%ADD58R,1.4000X1.0000*%
%ADD59R,1.0000X1.1000*%
%ADD60R,1.4000X1.6000*%
%ADD61R,0.3000X1.2000*%
%ADD62R,1.2000X0.3000*%
%ADD63R,0.3500X0.4500*%
%ADD64R,0.4500X0.3500*%
%ADD65R,0.8000X0.9000*%
%ADD66R,1.5000X3.0000*%
%ADD67R,1.5000X1.3000*%
%ADD68R,1.0500X1.1000*%
%ADD69R,1.1000X1.0500*%
%ADD70R,1.0000X0.7000*%
%ADD71R,1.5500X1.4250*%
%ADD72R,1.3800X0.4500*%
%ADD73R,1.3000X1.6500*%
%ADD74R,1.9000X1.8000*%
%ADD75R,1.9000X1.0000*%
%ADD76R,1.5000X1.8000*%
%ADD77R,0.7000X1.8000*%
%ADD78C,0.2540*%
%ADD79C,0.5000*%
%ADD80C,0.1540*%
%ADD81C,1.0000*%
%ADD82C,0.3500*%
%ADD83C,0.1510*%
%ADD84C,0.2500*%
%ADD85R,2.4000X4.0000*%
%ADD86C,1.8000*%
%ADD87R,1.8000X1.8000*%
%ADD88R,1.8000X1.8000*%
%ADD89C,1.2000*%
%ADD90C,1.6000*%
%ADD91R,1.6000X1.6000*%
%ADD92C,0.6000*%
%ADD93C,1.2700*%
%ADD94C,2.0000*%
%ADD95C,0.9000*%
G36*
X299280Y596517D02*
X303396Y595269D01*
X307188Y593241D01*
X310513Y590513D01*
X313241Y587188D01*
X315269Y583396D01*
X316517Y579280D01*
X316926Y575129D01*
X316900Y575000D01*
Y125000D01*
X316926Y124871D01*
X316517Y120720D01*
X315269Y116604D01*
X313241Y112812D01*
X310513Y109487D01*
X307188Y106759D01*
X303396Y104731D01*
X299280Y103483D01*
X295128Y103074D01*
X295000Y103100D01*
X265000D01*
X263814Y102864D01*
X262808Y102192D01*
X262136Y101186D01*
X261900Y100000D01*
Y25000D01*
X261926Y24872D01*
X261517Y20720D01*
X260269Y16604D01*
X258241Y12812D01*
X255513Y9487D01*
X252188Y6759D01*
X248396Y4731D01*
X244280Y3483D01*
X241245Y3184D01*
X240000Y3100D01*
X240000Y3100D01*
X238750Y3100D01*
X26259D01*
X25000Y3100D01*
X23765Y3183D01*
X20720Y3483D01*
X16604Y4731D01*
X12812Y6759D01*
X9487Y9487D01*
X6759Y12812D01*
X4731Y16604D01*
X3483Y20720D01*
X3184Y23754D01*
X3100Y25000D01*
X3100Y25000D01*
X3100Y26250D01*
Y573741D01*
X3100Y575000D01*
X3183Y576235D01*
X3483Y579280D01*
X4731Y583396D01*
X6759Y587188D01*
X9487Y590513D01*
X12812Y593241D01*
X16604Y595269D01*
X20720Y596517D01*
X23765Y596817D01*
X25000Y596900D01*
Y596900D01*
X25000Y596900D01*
X112460D01*
Y587455D01*
X100265D01*
X98786Y588934D01*
X96154Y590454D01*
X93219Y591240D01*
X90181D01*
X87246Y590454D01*
X84614Y588934D01*
X82466Y586786D01*
X80946Y584154D01*
X80160Y581219D01*
Y578181D01*
X80946Y575246D01*
X82466Y572614D01*
X84614Y570466D01*
X87246Y568946D01*
X90181Y568160D01*
X93219D01*
X96154Y568946D01*
X98786Y570466D01*
X100565Y572245D01*
X112460D01*
Y562460D01*
X132540D01*
Y596900D01*
X295000D01*
X295129Y596926D01*
X299280Y596517D01*
D02*
G37*
%LPC*%
G36*
X269619Y591540D02*
X266581D01*
X263646Y590754D01*
X261014Y589234D01*
X258866Y587086D01*
X257346Y584454D01*
X256560Y581519D01*
Y578481D01*
X257346Y575546D01*
X258866Y572914D01*
X261014Y570766D01*
X263646Y569247D01*
X266581Y568460D01*
X269619D01*
X272554Y569247D01*
X275186Y570766D01*
X277334Y572914D01*
X278853Y575546D01*
X279640Y578481D01*
Y581519D01*
X278853Y584454D01*
X277334Y587086D01*
X275186Y589234D01*
X272554Y590754D01*
X269619Y591540D01*
D02*
G37*
G36*
X244219D02*
X241181D01*
X238246Y590754D01*
X235614Y589234D01*
X233466Y587086D01*
X231946Y584454D01*
X231160Y581519D01*
Y578481D01*
X231946Y575546D01*
X233466Y572914D01*
X235614Y570766D01*
X238246Y569247D01*
X241181Y568460D01*
X244219D01*
X247154Y569247D01*
X249786Y570766D01*
X251934Y572914D01*
X253454Y575546D01*
X254240Y578481D01*
Y581519D01*
X253454Y584454D01*
X251934Y587086D01*
X249786Y589234D01*
X247154Y590754D01*
X244219Y591540D01*
D02*
G37*
G36*
X218819D02*
X215781D01*
X212846Y590754D01*
X210214Y589234D01*
X208066Y587086D01*
X206546Y584454D01*
X205760Y581519D01*
Y578481D01*
X206546Y575546D01*
X208066Y572914D01*
X210214Y570766D01*
X212846Y569247D01*
X215781Y568460D01*
X218819D01*
X221754Y569247D01*
X224386Y570766D01*
X226534Y572914D01*
X228053Y575546D01*
X228840Y578481D01*
Y581519D01*
X228053Y584454D01*
X226534Y587086D01*
X224386Y589234D01*
X221754Y590754D01*
X218819Y591540D01*
D02*
G37*
G36*
X203440D02*
X180360D01*
Y568460D01*
X203440D01*
Y591540D01*
D02*
G37*
G36*
X67819Y591240D02*
X64781D01*
X61846Y590454D01*
X59214Y588934D01*
X57066Y586786D01*
X55546Y584154D01*
X54760Y581219D01*
Y578181D01*
X55546Y575246D01*
X57066Y572614D01*
X59214Y570466D01*
X61846Y568946D01*
X64781Y568160D01*
X67819D01*
X70754Y568946D01*
X73386Y570466D01*
X75534Y572614D01*
X77053Y575246D01*
X77840Y578181D01*
Y581219D01*
X77053Y584154D01*
X75534Y586786D01*
X73386Y588934D01*
X70754Y590454D01*
X67819Y591240D01*
D02*
G37*
G36*
X301519Y559440D02*
X298481D01*
X295546Y558653D01*
X292914Y557134D01*
X290766Y554986D01*
X289247Y552354D01*
X288460Y549419D01*
Y546381D01*
X289247Y543446D01*
X290766Y540814D01*
X292914Y538666D01*
X295546Y537146D01*
X298481Y536360D01*
X301519D01*
X304454Y537146D01*
X307086Y538666D01*
X309234Y540814D01*
X310754Y543446D01*
X311540Y546381D01*
Y549419D01*
X310754Y552354D01*
X309234Y554986D01*
X307086Y557134D01*
X304454Y558653D01*
X301519Y559440D01*
D02*
G37*
G36*
X103240Y565840D02*
X80160D01*
Y542760D01*
X87361D01*
Y536540D01*
X84960D01*
Y520810D01*
X84960Y520460D01*
Y519540D01*
X84960Y519190D01*
Y516639D01*
X82790D01*
Y519540D01*
X67210D01*
Y503460D01*
X70611D01*
Y501540D01*
X68460D01*
Y494731D01*
X66846D01*
X65359Y494435D01*
X64099Y493593D01*
X52046Y481540D01*
X50898D01*
X48862Y480697D01*
X47303Y479138D01*
X46460Y477102D01*
Y474898D01*
X47303Y472862D01*
X48862Y471303D01*
X50898Y470460D01*
X53102D01*
X55138Y471303D01*
X56697Y472862D01*
X57540Y474898D01*
Y476046D01*
X67414Y485920D01*
X68460Y486460D01*
X84190D01*
X84540Y486460D01*
X85460D01*
X85810Y486460D01*
X89615D01*
Y484290D01*
X85460D01*
Y468710D01*
X101540D01*
Y476115D01*
X136255D01*
X136640Y474845D01*
X135932Y474372D01*
X131368Y469808D01*
X130641Y468720D01*
X130386Y467436D01*
Y455564D01*
X130641Y454280D01*
X131368Y453192D01*
X132692Y451868D01*
X133780Y451141D01*
X135064Y450886D01*
X138322D01*
X144495Y444713D01*
X144009Y443540D01*
X138460D01*
Y438885D01*
X130609D01*
X127353Y442141D01*
X126092Y442983D01*
X124606Y443279D01*
X104783D01*
X99045Y449017D01*
X97785Y449859D01*
X96299Y450155D01*
X96290D01*
Y464290D01*
X78210D01*
Y460139D01*
X40565D01*
X39570Y461134D01*
X38458Y461876D01*
X38138Y462197D01*
X36102Y463040D01*
X33898D01*
X31862Y462197D01*
X30303Y460638D01*
X29460Y458602D01*
Y456398D01*
X30303Y454362D01*
X31862Y452803D01*
X33898Y451960D01*
X34209D01*
X34802Y451367D01*
X36470Y450253D01*
X38436Y449861D01*
X78210D01*
Y444210D01*
X90796D01*
X91483Y443523D01*
X92743Y442681D01*
X94230Y442385D01*
X94689D01*
X100427Y436648D01*
X101687Y435806D01*
X103174Y435510D01*
X122997D01*
X125115Y433391D01*
Y424040D01*
X118960D01*
Y415960D01*
Y405693D01*
X117787Y405207D01*
X115135Y407859D01*
Y421250D01*
X114839Y422737D01*
X113997Y423997D01*
X107747Y430247D01*
X106487Y431089D01*
X105000Y431385D01*
X72040D01*
Y445290D01*
X55960D01*
Y429710D01*
X58615D01*
Y424540D01*
X48960D01*
Y403460D01*
X68040D01*
Y423615D01*
X71960D01*
Y403460D01*
X91040D01*
Y423615D01*
X103391D01*
X107365Y419641D01*
Y414040D01*
X92460D01*
Y398310D01*
X92460Y397960D01*
X92460D01*
Y397040D01*
X92460D01*
Y381883D01*
X91239Y380841D01*
X91040Y380883D01*
Y386540D01*
X71960D01*
Y365460D01*
X77115D01*
Y362790D01*
X72960D01*
Y347210D01*
X82611D01*
X83290Y345940D01*
X83141Y345716D01*
X82845Y344230D01*
Y340540D01*
X74810D01*
X74460Y340540D01*
X73540D01*
X73190Y340540D01*
X62954D01*
X49747Y353747D01*
X48487Y354589D01*
X47000Y354884D01*
X42540D01*
Y359040D01*
X40139D01*
Y365429D01*
X40540Y366398D01*
Y368602D01*
X39697Y370638D01*
X38138Y372197D01*
X36102Y373040D01*
X33898D01*
X31862Y372197D01*
X30303Y370638D01*
X29460Y368602D01*
Y366398D01*
X29861Y365429D01*
Y359040D01*
X27460D01*
Y343310D01*
X27460Y342960D01*
Y342040D01*
X27460Y341690D01*
Y325960D01*
X31115D01*
Y309269D01*
X31411Y307783D01*
X32253Y306522D01*
X36960Y301815D01*
Y300667D01*
X37803Y298631D01*
X39362Y297073D01*
X40982Y296402D01*
X41398Y296229D01*
X41891Y294959D01*
X41845Y294730D01*
Y290040D01*
X30460D01*
Y274960D01*
X49540D01*
Y283615D01*
X50460Y284460D01*
X69540D01*
Y294567D01*
X71675Y296702D01*
X97460D01*
Y277960D01*
X115540D01*
Y281845D01*
X117460D01*
Y273460D01*
X121115D01*
Y256540D01*
X114960D01*
Y240810D01*
X114960Y240460D01*
Y239540D01*
X114960Y239190D01*
Y223460D01*
X118616D01*
Y213884D01*
X114040D01*
Y217790D01*
X105655D01*
Y218730D01*
X105359Y220217D01*
X104517Y221477D01*
X102540Y223454D01*
Y236690D01*
X102540Y237040D01*
X103385Y237960D01*
X112040D01*
Y257040D01*
X112040D01*
X111540Y257460D01*
Y272540D01*
X95810D01*
X95460Y272540D01*
X94540D01*
X94190Y272540D01*
X83204D01*
X80580Y275164D01*
Y276102D01*
X79737Y278138D01*
X78178Y279697D01*
X76142Y280540D01*
X73938D01*
X71902Y279697D01*
X70343Y278138D01*
X69500Y276102D01*
Y273898D01*
X70343Y271862D01*
X71902Y270303D01*
X73938Y269460D01*
X76142D01*
X76604Y269652D01*
X78460Y267796D01*
Y257460D01*
X94190D01*
X94540Y257460D01*
X95460D01*
X95864Y257460D01*
X96960Y257040D01*
Y238310D01*
X96960Y237960D01*
X96115Y237040D01*
X87460D01*
Y217960D01*
X97046D01*
X97885Y217121D01*
Y213980D01*
X97960Y213604D01*
Y202210D01*
X102115D01*
Y200040D01*
X97960D01*
Y184960D01*
X101115D01*
X101960Y184040D01*
Y164845D01*
X101842Y164250D01*
Y161598D01*
X96375D01*
X94424Y161210D01*
X92770Y160105D01*
X91665Y158451D01*
X91277Y156500D01*
Y153139D01*
X86071D01*
X85102Y153540D01*
X82898D01*
X80862Y152697D01*
X79303Y151138D01*
X78460Y149102D01*
Y146898D01*
X79303Y144862D01*
X80862Y143303D01*
X82898Y142460D01*
X85102D01*
X86071Y142861D01*
X91277D01*
Y116500D01*
X91665Y114549D01*
X92770Y112895D01*
X94424Y111790D01*
X96375Y111402D01*
X120375D01*
X122326Y111790D01*
X123980Y112895D01*
X125085Y114549D01*
X125473Y116500D01*
Y156500D01*
X125085Y158451D01*
X124257Y159690D01*
X124812Y160960D01*
X137040D01*
Y184040D01*
X126385D01*
Y210000D01*
Y223460D01*
X130040D01*
Y239190D01*
X130040Y239540D01*
Y240460D01*
X130040Y240810D01*
Y256540D01*
X128885D01*
Y273460D01*
X132540D01*
Y289190D01*
X132540Y289540D01*
X132540D01*
Y290460D01*
X132540D01*
Y306540D01*
X117810D01*
X117460Y306540D01*
X116540Y307385D01*
Y309074D01*
X122429D01*
X123712Y309329D01*
X124801Y310057D01*
X126704Y311960D01*
X128602D01*
X130638Y312803D01*
X132197Y314362D01*
X133040Y316398D01*
Y318602D01*
X132197Y320638D01*
X130638Y322197D01*
X128602Y323040D01*
X126540D01*
Y337790D01*
X123405D01*
Y351480D01*
X123109Y352967D01*
X122267Y354227D01*
X114477Y362017D01*
X113292Y362809D01*
X113217Y363216D01*
X113217Y363412D01*
X113484Y363675D01*
X114489Y364151D01*
X116158Y363460D01*
X118362D01*
X118960Y363060D01*
Y360960D01*
X136040D01*
Y362646D01*
X140000D01*
X141284Y362901D01*
X142372Y363628D01*
X144204Y365460D01*
X145102D01*
X147138Y366303D01*
X148697Y367862D01*
X149540Y369898D01*
Y372102D01*
X148697Y374138D01*
X147138Y375697D01*
X145102Y376540D01*
X144408Y377579D01*
X144540Y377898D01*
Y380102D01*
X143697Y382138D01*
X142138Y383697D01*
X140102Y384540D01*
X137898D01*
X136289Y383874D01*
X136040Y384040D01*
Y384040D01*
X118960D01*
Y383655D01*
X116932D01*
X116446Y384828D01*
X117579Y385961D01*
X118960D01*
Y385960D01*
X136040D01*
Y390960D01*
Y401646D01*
X161871D01*
X163155Y401901D01*
X164243Y402628D01*
X170346Y408731D01*
X171311Y408186D01*
X171460Y408049D01*
Y405898D01*
X172276Y403928D01*
X172161Y403689D01*
X171490Y402879D01*
X171102Y403040D01*
X168898D01*
X166862Y402197D01*
X165303Y400638D01*
X164460Y398602D01*
Y396398D01*
X165303Y394362D01*
X166862Y392803D01*
X168898Y391960D01*
X170796D01*
X173396Y389360D01*
Y358540D01*
X165938D01*
X165089Y359810D01*
X165540Y360898D01*
Y363102D01*
X164697Y365138D01*
X163138Y366697D01*
X161102Y367540D01*
X158898D01*
X156862Y366697D01*
X155303Y365138D01*
X155036Y364493D01*
X150139D01*
X148855Y364238D01*
X147767Y363511D01*
X146610Y362354D01*
X144129D01*
X142845Y362099D01*
X141756Y361372D01*
X140878Y360493D01*
X140151Y359405D01*
X139979Y358540D01*
X138460D01*
Y341460D01*
X143615D01*
Y322500D01*
X143911Y321013D01*
X144753Y319753D01*
X151644Y312862D01*
X152904Y312020D01*
X154391Y311724D01*
X193770D01*
X197125Y308369D01*
Y291079D01*
X197062Y290758D01*
Y288654D01*
X197357Y287167D01*
X198199Y285907D01*
X204873Y279233D01*
X204778Y279068D01*
X204060Y276388D01*
Y273612D01*
X204778Y270932D01*
X206166Y268528D01*
X208128Y266566D01*
X210532Y265178D01*
X213212Y264460D01*
X215988D01*
X218668Y265178D01*
X221072Y266566D01*
X223034Y268528D01*
X224422Y270932D01*
X225140Y273612D01*
Y276388D01*
X224422Y279068D01*
X223034Y281472D01*
X221072Y283434D01*
X218668Y284822D01*
X215988Y285540D01*
X213212D01*
X210532Y284822D01*
X210367Y284727D01*
X204831Y290263D01*
Y290501D01*
X204895Y290822D01*
Y293677D01*
X206121Y294005D01*
X206166Y293928D01*
X208128Y291966D01*
X210532Y290578D01*
X213212Y289860D01*
X215988D01*
X218668Y290578D01*
X221072Y291966D01*
X223034Y293928D01*
X224422Y296332D01*
X225140Y299012D01*
Y301787D01*
X224422Y304468D01*
X223034Y306872D01*
X221072Y308834D01*
X218668Y310222D01*
X218485Y310271D01*
Y316400D01*
X218189Y317887D01*
X217347Y319147D01*
X215442Y321052D01*
X215928Y322225D01*
X232281D01*
X242568Y311938D01*
X241910Y310800D01*
X241388Y310940D01*
X238612D01*
X235932Y310222D01*
X233528Y308834D01*
X231566Y306872D01*
X230178Y304468D01*
X229460Y301787D01*
Y299012D01*
X230178Y296332D01*
X231566Y293928D01*
X233528Y291966D01*
X235932Y290578D01*
X238612Y289860D01*
X241388D01*
X244068Y290578D01*
X246472Y291966D01*
X246942Y292436D01*
X248115Y291950D01*
Y288400D01*
X248411Y286913D01*
X249253Y285653D01*
X255673Y279233D01*
X255578Y279068D01*
X254860Y276388D01*
Y273612D01*
X255578Y270932D01*
X256966Y268528D01*
X258928Y266566D01*
X261332Y265178D01*
X264012Y264460D01*
X266788D01*
X269468Y265178D01*
X271872Y266566D01*
X273834Y268528D01*
X275222Y270932D01*
X275940Y273612D01*
Y276388D01*
X275222Y279068D01*
X273834Y281472D01*
X271872Y283434D01*
X269468Y284822D01*
X266788Y285540D01*
X264012D01*
X261332Y284822D01*
X261167Y284727D01*
X255885Y290009D01*
Y293473D01*
X257155Y293739D01*
X258928Y291966D01*
X261332Y290578D01*
X264012Y289860D01*
X266788D01*
X269468Y290578D01*
X271872Y291966D01*
X273834Y293928D01*
X275222Y296332D01*
X275940Y299012D01*
Y301787D01*
X275222Y304468D01*
X273834Y306872D01*
X271872Y308834D01*
X269468Y310222D01*
X266788Y310940D01*
X264012D01*
X261332Y310222D01*
X258928Y308834D01*
X257155Y307060D01*
X255885Y307327D01*
Y308000D01*
X255589Y309487D01*
X254747Y310747D01*
X236637Y328857D01*
X235377Y329699D01*
X233890Y329995D01*
X191567D01*
X181275Y340287D01*
X181761Y341460D01*
X191540D01*
Y358540D01*
X185855D01*
Y361105D01*
X185953Y361598D01*
Y380209D01*
X189407Y383663D01*
X189898Y383460D01*
X192102D01*
X194138Y384303D01*
X195697Y385862D01*
X196540Y387898D01*
Y390102D01*
X195697Y392138D01*
X194138Y393697D01*
X192102Y394540D01*
X189898D01*
X187862Y393697D01*
X186303Y392138D01*
X185460Y390102D01*
Y389204D01*
X181375Y385118D01*
X180105Y385645D01*
Y390750D01*
X179849Y392034D01*
X179122Y393122D01*
X175540Y396704D01*
Y398602D01*
X174724Y400572D01*
X174801Y400730D01*
X175629Y401321D01*
X176752Y400727D01*
Y398763D01*
X177596Y396726D01*
X179154Y395168D01*
X181190Y394325D01*
X183395D01*
X185431Y395168D01*
X186989Y396726D01*
X187833Y398763D01*
Y400967D01*
X187539Y401676D01*
X189872Y404010D01*
X190456Y404884D01*
X191761Y405282D01*
X191927Y405264D01*
X193868Y404460D01*
X196072D01*
X196310Y404558D01*
X197366Y403853D01*
Y394280D01*
X197621Y392996D01*
X198348Y391908D01*
X201878Y388378D01*
X202966Y387651D01*
X203960Y387453D01*
Y380960D01*
Y370960D01*
Y360960D01*
X221040D01*
Y361641D01*
X233608D01*
X234536Y360713D01*
X234050Y359540D01*
X223210D01*
Y353885D01*
X201540D01*
Y358540D01*
X193460D01*
Y341460D01*
X201540D01*
Y346115D01*
X223210D01*
Y343460D01*
X238790D01*
Y346361D01*
X276456D01*
X276867Y345650D01*
X277361Y345155D01*
Y321959D01*
X277752Y319992D01*
X278866Y318325D01*
X282361Y314830D01*
Y282317D01*
X281867Y281823D01*
X280940Y280217D01*
X280460Y278427D01*
Y276573D01*
X280940Y274783D01*
X281867Y273177D01*
X283177Y271867D01*
X284783Y270940D01*
X286573Y270460D01*
X288427D01*
X290217Y270940D01*
X291823Y271867D01*
X293133Y273177D01*
X294060Y274783D01*
X294540Y276573D01*
Y278427D01*
X294060Y280217D01*
X293133Y281823D01*
X292639Y282317D01*
Y316959D01*
X292248Y318925D01*
X291134Y320592D01*
X287639Y324087D01*
Y345155D01*
X288133Y345650D01*
X289060Y347255D01*
X289540Y349046D01*
Y350900D01*
X289060Y352690D01*
X288133Y354295D01*
X286823Y355606D01*
X285217Y356533D01*
X283427Y357013D01*
X281573D01*
X280055Y356606D01*
X279890Y356639D01*
X266971D01*
X266265Y357695D01*
X266540Y358358D01*
Y360562D01*
X265697Y362598D01*
X264565Y363730D01*
X265697Y364862D01*
X266540Y366898D01*
Y369102D01*
X265697Y371138D01*
X264138Y372697D01*
X262102Y373540D01*
X259898D01*
X257998Y372753D01*
X256964Y373787D01*
X257450Y374960D01*
X268290D01*
Y390040D01*
X252210D01*
X251540Y391032D01*
Y391468D01*
X252061Y392240D01*
X252636Y392460D01*
X268290D01*
Y406905D01*
X269372Y407628D01*
X270787Y409043D01*
X272100Y408560D01*
X272803Y406862D01*
X274362Y405303D01*
X276398Y404460D01*
X278602D01*
X280638Y405303D01*
X282197Y406862D01*
X283040Y408898D01*
Y410796D01*
X283890Y411646D01*
X288951D01*
X289246Y410546D01*
X290765Y407914D01*
X292914Y405766D01*
X295546Y404246D01*
X298480Y403460D01*
X301519D01*
X304454Y404246D01*
X307085Y405766D01*
X309234Y407914D01*
X310753Y410546D01*
X311540Y413481D01*
Y416519D01*
X310753Y419454D01*
X309234Y422086D01*
X307085Y424234D01*
X304454Y425753D01*
X301519Y426540D01*
X298480D01*
X295546Y425753D01*
X292914Y424234D01*
X290765Y422086D01*
X289246Y419454D01*
X288952Y418354D01*
X282500D01*
X281744Y418204D01*
X281118Y419375D01*
X292912Y431168D01*
X292914Y431166D01*
X295546Y429646D01*
X298480Y428860D01*
X301519D01*
X304454Y429646D01*
X307085Y431166D01*
X309234Y433314D01*
X310753Y435946D01*
X311540Y438881D01*
Y441919D01*
X310753Y444854D01*
X309234Y447486D01*
X307085Y449634D01*
X304454Y451153D01*
X301519Y451940D01*
X298480D01*
X295546Y451153D01*
X292914Y449634D01*
X290765Y447486D01*
X289246Y444854D01*
X288460Y441919D01*
Y438881D01*
X289025Y436769D01*
X265610Y413354D01*
X221040D01*
Y414040D01*
X207105D01*
Y415960D01*
X221040D01*
Y422115D01*
X228460D01*
Y417210D01*
X244540D01*
Y426273D01*
X263629Y445361D01*
X274750D01*
X275246Y445460D01*
X285290D01*
Y454273D01*
X285879Y454861D01*
X288460D01*
Y454260D01*
X311540D01*
Y477340D01*
X288460D01*
Y465139D01*
X283750D01*
X281784Y464748D01*
X280116Y463634D01*
X278023Y461540D01*
X270714D01*
X270365Y461540D01*
X269839Y462810D01*
X274674Y467645D01*
X277132D01*
X278415Y467901D01*
X279504Y468628D01*
X283122Y472246D01*
X283849Y473335D01*
X284104Y474618D01*
Y489270D01*
X284697Y489862D01*
X285540Y491898D01*
Y494102D01*
X284697Y496138D01*
X283138Y497697D01*
X281102Y498540D01*
X278898D01*
X278596Y498415D01*
X277540Y499120D01*
Y500362D01*
X285954D01*
X288460Y497855D01*
Y495581D01*
X289247Y492646D01*
X290766Y490014D01*
X292914Y487866D01*
X295546Y486346D01*
X298481Y485560D01*
X301519D01*
X304454Y486346D01*
X307086Y487866D01*
X309234Y490014D01*
X310754Y492646D01*
X311540Y495581D01*
Y498619D01*
X310754Y501554D01*
X309234Y504186D01*
X307086Y506334D01*
X304454Y507854D01*
X301519Y508640D01*
X298481D01*
X295546Y507854D01*
X293929Y506920D01*
X291716Y509134D01*
X290049Y510248D01*
X288082Y510639D01*
X277540D01*
Y513540D01*
X275139D01*
Y538000D01*
X274748Y539967D01*
X273634Y541634D01*
X264134Y551134D01*
X262467Y552248D01*
X260500Y552639D01*
X200040D01*
Y556040D01*
X179960D01*
Y552139D01*
X171500D01*
X171500Y552139D01*
X155540D01*
Y553040D01*
X140460D01*
Y548227D01*
X131366Y539133D01*
X130252Y537466D01*
X129861Y535500D01*
Y535177D01*
X129540Y534040D01*
X114460D01*
Y533139D01*
X111885D01*
Y540391D01*
X113287Y541793D01*
X114460Y541307D01*
Y540960D01*
X129540D01*
Y553040D01*
X114460D01*
Y550885D01*
X113000D01*
X111513Y550589D01*
X110253Y549747D01*
X105253Y544747D01*
X105187Y544648D01*
X103488Y544391D01*
X103240Y544593D01*
Y565840D01*
D02*
G37*
G36*
X301519Y534040D02*
X298481D01*
X295546Y533254D01*
X292914Y531734D01*
X290766Y529586D01*
X289247Y526954D01*
X288460Y524019D01*
Y520981D01*
X289247Y518046D01*
X290766Y515414D01*
X292914Y513266D01*
X295546Y511746D01*
X298481Y510960D01*
X301519D01*
X304454Y511746D01*
X307086Y513266D01*
X309234Y515414D01*
X310754Y518046D01*
X311540Y520981D01*
Y524019D01*
X310754Y526954D01*
X309234Y529586D01*
X307086Y531734D01*
X304454Y533254D01*
X301519Y534040D01*
D02*
G37*
G36*
X67819Y565840D02*
X64781D01*
X61846Y565054D01*
X59214Y563534D01*
X57066Y561386D01*
X55546Y558754D01*
X54760Y555819D01*
Y552781D01*
X55546Y549846D01*
X57066Y547214D01*
X58727Y545553D01*
X47049Y533874D01*
X46750D01*
X46327Y533790D01*
X32160D01*
Y524210D01*
Y517710D01*
Y511210D01*
Y504710D01*
X51040D01*
Y511210D01*
Y517710D01*
Y525797D01*
X51953Y526407D01*
X66618Y541072D01*
X67566Y542491D01*
X67620Y542760D01*
X67819D01*
X70754Y543546D01*
X73386Y545066D01*
X75534Y547214D01*
X77053Y549846D01*
X77840Y552781D01*
Y555819D01*
X77053Y558754D01*
X75534Y561386D01*
X73386Y563534D01*
X70754Y565054D01*
X67819Y565840D01*
D02*
G37*
G36*
X68040Y386540D02*
X48960D01*
Y365460D01*
X68040D01*
Y386540D01*
D02*
G37*
G36*
X241388Y285540D02*
X238612D01*
X235932Y284822D01*
X233528Y283434D01*
X231566Y281472D01*
X230178Y279068D01*
X229460Y276388D01*
Y273612D01*
X230178Y270932D01*
X231566Y268528D01*
X233528Y266566D01*
X235932Y265178D01*
X238612Y264460D01*
X241388D01*
X244068Y265178D01*
X246472Y266566D01*
X248434Y268528D01*
X249822Y270932D01*
X250540Y273612D01*
Y276388D01*
X249822Y279068D01*
X248434Y281472D01*
X246472Y283434D01*
X244068Y284822D01*
X241388Y285540D01*
D02*
G37*
G36*
X190588D02*
X187812D01*
X185132Y284822D01*
X182728Y283434D01*
X180766Y281472D01*
X179378Y279068D01*
X178660Y276388D01*
Y273612D01*
X179378Y270932D01*
X180766Y268528D01*
X182728Y266566D01*
X185132Y265178D01*
X187812Y264460D01*
X190588D01*
X193268Y265178D01*
X195672Y266566D01*
X197634Y268528D01*
X199022Y270932D01*
X199740Y273612D01*
Y276388D01*
X199022Y279068D01*
X197634Y281472D01*
X195672Y283434D01*
X193268Y284822D01*
X190588Y285540D01*
D02*
G37*
G36*
X51102Y260540D02*
X48898D01*
X46862Y259697D01*
X45303Y258138D01*
X45093Y257631D01*
X42101Y254639D01*
X24394D01*
X24334Y254744D01*
X22744Y256334D01*
X20796Y257458D01*
X18624Y258040D01*
X16376D01*
X14204Y257458D01*
X12256Y256334D01*
X10666Y254744D01*
X9542Y252796D01*
X8960Y250624D01*
Y248376D01*
X9542Y246204D01*
X10666Y244256D01*
X12256Y242666D01*
X14204Y241542D01*
X16376Y240960D01*
X18624D01*
X20796Y241542D01*
X22744Y242666D01*
X24334Y244256D01*
X24394Y244361D01*
X44229D01*
X46196Y244752D01*
X47863Y245866D01*
X51707Y249711D01*
X53138Y250303D01*
X54697Y251862D01*
X55540Y253898D01*
Y256102D01*
X54697Y258138D01*
X53138Y259697D01*
X51102Y260540D01*
D02*
G37*
G36*
X69424Y258040D02*
X67176D01*
X65004Y257458D01*
X63056Y256334D01*
X61466Y254744D01*
X60342Y252796D01*
X59760Y250624D01*
Y248376D01*
X60342Y246204D01*
X61466Y244256D01*
X63056Y242666D01*
X65004Y241542D01*
X67176Y240960D01*
X69424D01*
X71596Y241542D01*
X73544Y242666D01*
X75134Y244256D01*
X76258Y246204D01*
X76840Y248376D01*
Y250624D01*
X76258Y252796D01*
X75134Y254744D01*
X73544Y256334D01*
X71596Y257458D01*
X69424Y258040D01*
D02*
G37*
G36*
Y226040D02*
X67176D01*
X65004Y225458D01*
X63056Y224334D01*
X61466Y222744D01*
X60342Y220796D01*
X59760Y218624D01*
Y216376D01*
X60342Y214204D01*
X61466Y212256D01*
X63056Y210666D01*
X65004Y209542D01*
X67176Y208960D01*
X69424D01*
X71596Y209542D01*
X73544Y210666D01*
X75134Y212256D01*
X76258Y214204D01*
X76840Y216376D01*
Y218624D01*
X76258Y220796D01*
X75134Y222744D01*
X73544Y224334D01*
X71596Y225458D01*
X69424Y226040D01*
D02*
G37*
G36*
X18624D02*
X16376D01*
X14204Y225458D01*
X12256Y224334D01*
X10666Y222744D01*
X9542Y220796D01*
X8960Y218624D01*
Y216376D01*
X9542Y214204D01*
X10666Y212256D01*
X12256Y210666D01*
X14204Y209542D01*
X16376Y208960D01*
X18624D01*
X20796Y209542D01*
X22744Y210666D01*
X24334Y212256D01*
X25458Y214204D01*
X26040Y216376D01*
Y218624D01*
X25458Y220796D01*
X24334Y222744D01*
X22744Y224334D01*
X20796Y225458D01*
X18624Y226040D01*
D02*
G37*
G36*
Y204040D02*
X16376D01*
X14204Y203458D01*
X12256Y202334D01*
X10666Y200744D01*
X9542Y198796D01*
X8960Y196624D01*
Y194376D01*
X9542Y192204D01*
X10666Y190256D01*
X12256Y188666D01*
X14204Y187542D01*
X16376Y186960D01*
X18624D01*
X20796Y187542D01*
X22744Y188666D01*
X24334Y190256D01*
X25458Y192204D01*
X26040Y194376D01*
Y196624D01*
X25458Y198796D01*
X24334Y200744D01*
X22744Y202334D01*
X20796Y203458D01*
X18624Y204040D01*
D02*
G37*
G36*
X69424Y182040D02*
X67176D01*
X65004Y181458D01*
X63056Y180334D01*
X61466Y178744D01*
X60342Y176796D01*
X59961Y175375D01*
X58623Y174037D01*
X57414Y172461D01*
X56654Y170627D01*
X56395Y168659D01*
Y155040D01*
X53960D01*
Y119960D01*
X74040D01*
Y155040D01*
X71605D01*
Y165509D01*
X71696Y165599D01*
X73544Y166666D01*
X75134Y168256D01*
X76258Y170204D01*
X76840Y172376D01*
Y174624D01*
X76258Y176796D01*
X75134Y178744D01*
X73544Y180334D01*
X71596Y181458D01*
X69424Y182040D01*
D02*
G37*
G36*
X18624D02*
X16376D01*
X14204Y181458D01*
X12256Y180334D01*
X10666Y178744D01*
X9542Y176796D01*
X8960Y174624D01*
Y172376D01*
X9542Y170204D01*
X10278Y168930D01*
Y155040D01*
X8960D01*
Y119960D01*
X29040D01*
Y155040D01*
X25488D01*
Y170315D01*
X26040Y172376D01*
Y174624D01*
X25458Y176796D01*
X24334Y178744D01*
X22744Y180334D01*
X20796Y181458D01*
X18624Y182040D01*
D02*
G37*
G36*
X151102Y141540D02*
X148898D01*
X146862Y140697D01*
X145303Y139138D01*
X144460Y137102D01*
Y134898D01*
X144861Y133929D01*
Y116540D01*
X142460D01*
Y100810D01*
X142460Y100460D01*
Y99540D01*
X142460Y99190D01*
Y96638D01*
X137500D01*
X135534Y96247D01*
X133867Y95133D01*
X119719Y80986D01*
X118605Y79319D01*
X118214Y77352D01*
Y73381D01*
X109974Y65142D01*
X108488Y65540D01*
X105712D01*
X103032Y64822D01*
X100628Y63434D01*
X98666Y61472D01*
X97278Y59068D01*
X96560Y56388D01*
Y53612D01*
X97278Y50932D01*
X98666Y48528D01*
X100628Y46566D01*
X103032Y45178D01*
X105712Y44460D01*
X108488D01*
X111168Y45178D01*
X113572Y46566D01*
X115534Y48528D01*
X116922Y50932D01*
X117640Y53612D01*
Y56388D01*
X117242Y57874D01*
X126986Y67619D01*
X128100Y69286D01*
X128491Y71252D01*
Y75224D01*
X139629Y86361D01*
X142460D01*
Y83460D01*
X157540D01*
Y99190D01*
X157540Y99540D01*
Y100460D01*
X157540Y100810D01*
Y116540D01*
X155139D01*
Y133929D01*
X155540Y134898D01*
Y137102D01*
X154697Y139138D01*
X153138Y140697D01*
X151102Y141540D01*
D02*
G37*
G36*
X210088Y65540D02*
X207312D01*
X204632Y64822D01*
X202228Y63434D01*
X200266Y61472D01*
X198878Y59068D01*
X198160Y56388D01*
Y53612D01*
X198878Y50932D01*
X200266Y48528D01*
X202228Y46566D01*
X204632Y45178D01*
X207312Y44460D01*
X210088D01*
X212768Y45178D01*
X215172Y46566D01*
X217134Y48528D01*
X218522Y50932D01*
X219240Y53612D01*
Y56388D01*
X218522Y59068D01*
X217134Y61472D01*
X215172Y63434D01*
X212768Y64822D01*
X210088Y65540D01*
D02*
G37*
G36*
X184688D02*
X181912D01*
X179232Y64822D01*
X176828Y63434D01*
X174866Y61472D01*
X173478Y59068D01*
X172760Y56388D01*
Y53612D01*
X173478Y50932D01*
X174866Y48528D01*
X176828Y46566D01*
X179232Y45178D01*
X181912Y44460D01*
X184688D01*
X187368Y45178D01*
X189772Y46566D01*
X191734Y48528D01*
X193122Y50932D01*
X193840Y53612D01*
Y56388D01*
X193122Y59068D01*
X191734Y61472D01*
X189772Y63434D01*
X187368Y64822D01*
X184688Y65540D01*
D02*
G37*
G36*
X159288D02*
X156512D01*
X153832Y64822D01*
X151428Y63434D01*
X149466Y61472D01*
X148078Y59068D01*
X147360Y56388D01*
Y53612D01*
X148078Y50932D01*
X149466Y48528D01*
X151428Y46566D01*
X153832Y45178D01*
X156512Y44460D01*
X159288D01*
X161968Y45178D01*
X164372Y46566D01*
X166334Y48528D01*
X167722Y50932D01*
X168440Y53612D01*
Y56388D01*
X167722Y59068D01*
X166334Y61472D01*
X164372Y63434D01*
X161968Y64822D01*
X159288Y65540D01*
D02*
G37*
G36*
X133888D02*
X131112D01*
X128432Y64822D01*
X126028Y63434D01*
X124066Y61472D01*
X122678Y59068D01*
X121960Y56388D01*
Y53612D01*
X122678Y50932D01*
X124066Y48528D01*
X126028Y46566D01*
X128432Y45178D01*
X131112Y44460D01*
X133888D01*
X136568Y45178D01*
X138972Y46566D01*
X140934Y48528D01*
X142322Y50932D01*
X143040Y53612D01*
Y56388D01*
X142322Y59068D01*
X140934Y61472D01*
X138972Y63434D01*
X136568Y64822D01*
X133888Y65540D01*
D02*
G37*
%LPD*%
G36*
X210861Y492000D02*
X211252Y490033D01*
X212115Y488742D01*
Y487379D01*
X210942Y486893D01*
X210638Y487197D01*
X208602Y488040D01*
X208113D01*
X207540Y488898D01*
Y491102D01*
X206697Y493138D01*
X205138Y494697D01*
X203102Y495540D01*
X202693D01*
X202207Y496713D01*
X206372Y500878D01*
X207099Y501967D01*
X207354Y503250D01*
Y517480D01*
X208697Y518822D01*
X209540Y520858D01*
Y523062D01*
X208697Y525098D01*
X207138Y526657D01*
X205102Y527500D01*
X202898D01*
X200862Y526657D01*
X199303Y525098D01*
X198460Y523062D01*
Y520858D01*
X199303Y518822D01*
X200646Y517480D01*
Y504640D01*
X195463Y499457D01*
X194290Y499943D01*
Y502615D01*
X194697Y503022D01*
X195540Y505058D01*
Y507262D01*
X194697Y509298D01*
X193138Y510857D01*
X191102Y511700D01*
X188898D01*
X186862Y510857D01*
X186445Y510440D01*
X185446Y510638D01*
X183888Y512197D01*
X181852Y513040D01*
X179648D01*
X177612Y512197D01*
X176053Y510638D01*
X175210Y508602D01*
Y506398D01*
X175668Y505293D01*
X175710Y504040D01*
X175710Y504040D01*
X175710Y504040D01*
Y494460D01*
X178155D01*
X179004Y493190D01*
X178526Y492036D01*
Y490713D01*
X178176Y489745D01*
X177353Y489540D01*
X175898D01*
X173862Y488697D01*
X173810Y488645D01*
X172540Y489171D01*
Y494460D01*
X174290D01*
Y504040D01*
X165710D01*
X165139Y505073D01*
Y541861D01*
X171500D01*
X171500Y541861D01*
X179960D01*
Y537960D01*
X200040D01*
Y542361D01*
X210861D01*
Y492000D01*
D02*
G37*
G36*
X264861Y535872D02*
Y513540D01*
X262460D01*
Y512660D01*
X261404Y511954D01*
X260950Y512142D01*
X258746D01*
X257861Y511776D01*
X256591Y512625D01*
Y518935D01*
X257934Y520277D01*
X258777Y522313D01*
Y524517D01*
X257934Y526553D01*
X256375Y528111D01*
X254339Y528955D01*
X252135D01*
X250099Y528111D01*
X248540Y526553D01*
X247697Y524517D01*
Y522313D01*
X248540Y520277D01*
X249541Y519276D01*
X249481Y518447D01*
X248589Y517540D01*
X246385D01*
X246160Y517447D01*
X245105Y518153D01*
Y521139D01*
X244849Y522423D01*
X244122Y523511D01*
X242140Y525494D01*
X242540Y526460D01*
X242540D01*
Y541540D01*
X243470Y542361D01*
X258372D01*
X264861Y535872D01*
D02*
G37*
G36*
X114460Y521960D02*
X125034D01*
X125520Y520787D01*
X124058Y519325D01*
X122944Y517658D01*
X122553Y515691D01*
Y515033D01*
X121960Y513602D01*
Y511398D01*
X122803Y509362D01*
X124362Y507803D01*
X126398Y506960D01*
X128602D01*
X130638Y507803D01*
X132197Y509362D01*
X133040Y511398D01*
Y513602D01*
X132990Y513723D01*
X136037Y516769D01*
X137210Y516283D01*
Y502960D01*
X152790D01*
Y519040D01*
X151639D01*
Y521960D01*
X154861D01*
Y494000D01*
Y490000D01*
X155014Y489235D01*
X153956Y488040D01*
X152628D01*
X150592Y487197D01*
X149033Y485638D01*
X148307Y483885D01*
X101540D01*
Y484290D01*
X97385D01*
Y486460D01*
X101540D01*
Y501540D01*
X85810D01*
X85460Y501540D01*
X84540D01*
X84190Y501540D01*
X80889D01*
Y503460D01*
X82790D01*
Y506362D01*
X84960D01*
Y503460D01*
X100040D01*
Y519190D01*
X100040Y519540D01*
Y520460D01*
X100040Y520810D01*
Y522861D01*
X114460D01*
Y521960D01*
D02*
G37*
G36*
X226460Y541540D02*
Y526460D01*
X232139D01*
X232162Y526345D01*
X232889Y525257D01*
X234432Y523713D01*
X234128Y522221D01*
X232862Y521697D01*
X231303Y520138D01*
X230460Y518102D01*
Y515898D01*
X231303Y513862D01*
X232862Y512303D01*
X233646Y511979D01*
Y503790D01*
X232710D01*
Y494210D01*
X244460D01*
Y484934D01*
X243190Y484888D01*
X242128Y485950D01*
X240092Y486794D01*
X237888D01*
X235852Y485950D01*
X234294Y484392D01*
X233450Y482356D01*
Y480152D01*
X232874Y479290D01*
X229540D01*
Y494210D01*
X231290D01*
Y503790D01*
X222710D01*
Y496040D01*
X221139D01*
Y542361D01*
X225530D01*
X226460Y541540D01*
D02*
G37*
G36*
X262460Y481065D02*
Y480460D01*
X269062D01*
X269911Y479190D01*
X269460Y478102D01*
Y476204D01*
X232610Y439354D01*
X212826D01*
X211543Y439099D01*
X210454Y438372D01*
X202713Y430631D01*
X201540Y431117D01*
Y442892D01*
X203138Y443553D01*
X204697Y445112D01*
X205540Y447148D01*
Y449352D01*
X205442Y449590D01*
X206147Y450646D01*
X211796D01*
X212580Y450802D01*
X213763Y450312D01*
X215967D01*
X218003Y451155D01*
X219562Y452714D01*
X220405Y454750D01*
Y456954D01*
X219562Y458990D01*
X218003Y460548D01*
X215967Y461392D01*
X213763D01*
X213473Y461272D01*
X213163Y461479D01*
X212319Y463516D01*
X210761Y465074D01*
X208725Y465917D01*
X206521D01*
X204485Y465074D01*
X203515Y464104D01*
X199147D01*
X198442Y465160D01*
X198540Y465398D01*
Y467602D01*
X197697Y469638D01*
X196138Y471197D01*
X194102Y472040D01*
X191898D01*
X190560Y471486D01*
X189290Y472284D01*
Y477710D01*
X197040D01*
Y478896D01*
X203270D01*
X204362Y477803D01*
X206398Y476960D01*
X208602D01*
X210638Y477803D01*
X211155Y478320D01*
X211421Y478361D01*
X212705Y478074D01*
X213253Y477253D01*
X218273Y472233D01*
X219533Y471391D01*
X220568Y471185D01*
X221092Y469914D01*
X221027Y469848D01*
X220183Y467812D01*
Y465608D01*
X221027Y463572D01*
X222585Y462014D01*
X224621Y461170D01*
X226825D01*
X228862Y462014D01*
X230354Y463507D01*
X237250D01*
X238534Y463762D01*
X239622Y464489D01*
X243872Y468739D01*
X244521Y469710D01*
X246290D01*
Y477460D01*
X254040D01*
Y478396D01*
X256742D01*
X258025Y478651D01*
X259114Y479378D01*
X261287Y481551D01*
X262460Y481065D01*
D02*
G37*
G36*
X148395Y440517D02*
Y435750D01*
X148460Y435425D01*
Y426460D01*
X179146D01*
Y414399D01*
X178202Y413609D01*
X177540Y414898D01*
Y417102D01*
X176697Y419138D01*
X175138Y420697D01*
X173102Y421540D01*
X170898D01*
X168862Y420697D01*
X167303Y419138D01*
X166810Y417947D01*
X165709Y418081D01*
X165520Y418151D01*
X164697Y420138D01*
X163138Y421697D01*
X161102Y422540D01*
X158898D01*
X156862Y421697D01*
X155432Y420267D01*
X154668Y420247D01*
X154020Y420358D01*
X153697Y421138D01*
X152138Y422697D01*
X150102Y423540D01*
X147898D01*
X145862Y422697D01*
X144303Y421138D01*
X143460Y419102D01*
Y418422D01*
X143393Y418355D01*
X136040D01*
Y424040D01*
X132885D01*
Y431115D01*
X138460D01*
Y426460D01*
X146540D01*
Y440379D01*
X147810Y440976D01*
X148395Y440517D01*
D02*
G37*
G36*
X108980Y355386D02*
X110121D01*
X115635Y349871D01*
Y337790D01*
X110460D01*
Y322210D01*
X122579D01*
X123105Y320940D01*
X122803Y320638D01*
X121960Y318602D01*
Y316704D01*
X121039Y315783D01*
X116540D01*
Y320040D01*
X100810D01*
X100460Y320040D01*
X99540D01*
X99190Y320040D01*
X83460D01*
Y316385D01*
X81540D01*
X81540Y325040D01*
X82636Y325460D01*
X90540D01*
Y336356D01*
X90614Y336730D01*
Y342621D01*
X95247Y347253D01*
X96089Y348513D01*
X96385Y350000D01*
Y354532D01*
X97210Y355460D01*
X108605D01*
X108980Y355386D01*
D02*
G37*
G36*
X57460Y335047D02*
X57460Y325460D01*
X56364Y325040D01*
X44460D01*
Y307882D01*
X43602Y307309D01*
X42454D01*
X38884Y310878D01*
Y325960D01*
X42540D01*
Y341690D01*
X42540Y342040D01*
Y342960D01*
X42540Y343310D01*
Y347115D01*
X45391D01*
X57460Y335047D01*
D02*
G37*
G36*
X118616Y184040D02*
X116960D01*
Y161598D01*
X114158D01*
Y164250D01*
X114040Y164845D01*
Y183690D01*
X114040Y184040D01*
X114040D01*
Y184960D01*
X114040D01*
Y200040D01*
X109885D01*
Y202210D01*
X114040D01*
Y206115D01*
X118616D01*
Y184040D01*
D02*
G37*
D10*
X173918Y482000D02*
X175918Y484000D01*
X177000D01*
X167750Y482000D02*
X173918D01*
D14*
X187000Y465717D02*
X192217D01*
X186750Y460750D02*
X207250D01*
X168091Y442091D02*
X186750Y460750D01*
X186033Y464750D02*
X187000Y465717D01*
X192217D02*
X193000Y466500D01*
X207250Y460750D02*
X208000Y460000D01*
X191477Y454163D02*
X191639Y454000D01*
X211796D01*
X184645Y454163D02*
X191477D01*
X173250Y442768D02*
X184645Y454163D01*
X168091Y435591D02*
Y442091D01*
X155417Y446115D02*
X157500Y444032D01*
X155417Y446115D02*
Y446667D01*
X185000Y465783D02*
Y474750D01*
Y465783D02*
X186033Y464750D01*
X176500D02*
X186033D01*
X173000Y461250D02*
X176500Y464750D01*
X135064Y454240D02*
X139064D01*
X138304Y472000D02*
X150000D01*
X133740Y467436D02*
X138304Y472000D01*
X133740Y455564D02*
Y467436D01*
Y455564D02*
X135064Y454240D01*
X167500Y435000D02*
X168091Y435591D01*
X173250Y435750D02*
Y442768D01*
X211796Y454000D02*
X213647Y455852D01*
X178250Y441701D02*
X181881Y445332D01*
X183946D02*
X184807Y446193D01*
X181881Y445332D02*
X183946D01*
X188250Y441505D02*
X192052Y445306D01*
Y445307D01*
X188250Y435750D02*
Y441505D01*
X187500Y435000D02*
X188250Y435750D01*
X139199Y454105D02*
X139847D01*
X151750Y435750D02*
X152500Y435000D01*
X139847Y454105D02*
X151750Y442202D01*
Y435750D02*
Y442202D01*
X157500Y435000D02*
Y444032D01*
X139064Y454240D02*
X139199Y454105D01*
X178250Y435750D02*
Y441701D01*
X177500Y435000D02*
X178250Y435750D01*
X172500Y435000D02*
X173250Y435750D01*
X258987Y493598D02*
Y505741D01*
X259848Y506602D01*
X170000Y397500D02*
X176750Y390750D01*
Y355250D02*
Y390750D01*
X200720Y394280D02*
Y408894D01*
X204250Y390750D02*
X211750D01*
X200720Y394280D02*
X204250Y390750D01*
X203750Y398035D02*
Y407639D01*
Y398035D02*
X206035Y395750D01*
X211750D02*
X212500Y395000D01*
X206035Y395750D02*
X211750D01*
X192052Y445307D02*
X195854Y449109D01*
X235255Y432970D02*
X273285Y471000D01*
X234000Y436000D02*
X275000Y477000D01*
X212826Y436000D02*
X234000D01*
X273285Y471000D02*
X277132D01*
X214081Y432970D02*
X235255D01*
X200720Y423894D02*
X212826Y436000D01*
X203750Y422639D02*
X214081Y432970D01*
X277132Y471000D02*
X280750Y474618D01*
X252639Y487250D02*
X258987Y493598D01*
X241737Y514382D02*
X241750Y514395D01*
X242000Y499000D02*
Y507309D01*
X241737Y507572D02*
Y514382D01*
Y507572D02*
X242000Y507309D01*
X241750Y514395D02*
Y521139D01*
X247487Y512000D02*
X247500Y511987D01*
X253237Y501237D02*
Y523415D01*
X252250Y500250D02*
X253237Y501237D01*
X247500Y499500D02*
Y511987D01*
X235261Y527629D02*
X241750Y521139D01*
X247000Y499000D02*
X247500Y499500D01*
X236000Y517000D02*
X236861Y516139D01*
Y514011D02*
Y516139D01*
Y514011D02*
X237000Y513871D01*
X252250Y494250D02*
Y500250D01*
X237000Y499000D02*
Y513871D01*
X249750Y491750D02*
X252250Y494250D01*
X297400Y440400D02*
X300000D01*
X267000Y410000D02*
X297400Y440400D01*
X212500Y410000D02*
X267000D01*
X277500Y410000D02*
X282500Y415000D01*
X238990Y481254D02*
X239238Y481502D01*
X249002D01*
X249250Y481750D01*
X247000Y475000D02*
X248000Y476000D01*
X251967D02*
X254687Y478720D01*
X247000Y474500D02*
Y475000D01*
X248000Y476000D02*
X251967D01*
X213647Y455852D02*
X214865D01*
X280750Y474618D02*
Y492250D01*
X280000Y493000D02*
X280750Y492250D01*
X249250Y481750D02*
X256742D01*
X269500Y488000D02*
X270000Y488500D01*
X262992Y488000D02*
X269500D01*
X256742Y481750D02*
X262992Y488000D01*
X127500Y365000D02*
X128250Y365750D01*
X133379D01*
X140000Y366000D02*
X144000Y370000D01*
X133379Y365750D02*
X133629Y366000D01*
X140000D01*
X150139Y361139D02*
X159139D01*
X148000Y359000D02*
X150139Y361139D01*
X159139D02*
X160000Y362000D01*
X144129Y359000D02*
X148000D01*
X143250Y358121D02*
X144129Y359000D01*
X143250Y350750D02*
Y358121D01*
X144000Y370000D02*
Y371000D01*
X136000Y375000D02*
X138139Y377139D01*
Y380139D02*
X139000Y381000D01*
X138139Y377139D02*
Y380139D01*
X190000Y499250D02*
Y506160D01*
Y499250D02*
X190000Y499250D01*
X190000Y506160D02*
X190000Y506160D01*
X225874Y466861D02*
X237250D01*
X225723Y466710D02*
X225874Y466861D01*
X241500Y474000D02*
X242000Y474500D01*
X241500Y471111D02*
Y474000D01*
X237250Y466861D02*
X241500Y471111D01*
X180375Y507125D02*
X180750Y507500D01*
X180000Y499250D02*
X180375Y499625D01*
Y507125D01*
X184533Y498783D02*
X185000Y499250D01*
X184066Y490934D02*
X184533Y491401D01*
Y498783D01*
X212500Y405000D02*
X225500D01*
X230000Y400500D01*
Y400000D02*
Y400500D01*
X219639Y399250D02*
X222500Y396389D01*
X212500Y400000D02*
X213250Y399250D01*
X219639D01*
X222500Y385879D02*
Y396389D01*
Y385879D02*
X223379Y385000D01*
X182598Y361598D02*
Y381598D01*
X190000Y389000D02*
X191000D01*
X182598Y381598D02*
X190000Y389000D01*
X182500Y361500D02*
X182598Y361598D01*
X182500Y350000D02*
Y361500D01*
X184937Y403726D02*
Y403818D01*
X182292Y401082D02*
X184937Y403726D01*
Y403818D02*
X187500Y406382D01*
Y423611D01*
X182500Y412500D02*
Y435000D01*
X177000Y407000D02*
X182500Y412500D01*
X182292Y399865D02*
Y401082D01*
X172000Y415129D02*
Y416000D01*
X161871Y405000D02*
X172000Y415129D01*
X127500Y405000D02*
X161871D01*
X153928Y410000D02*
X160000Y416072D01*
Y417000D01*
X127500Y410000D02*
X153928D01*
X147782Y418000D02*
X149000D01*
X144782Y415000D02*
X147782Y418000D01*
X127500Y415000D02*
X144782D01*
X282500Y415000D02*
X300000D01*
X192500Y482250D02*
X207250D01*
X207500Y482500D01*
X192250Y482000D02*
X192500Y482250D01*
X223379Y385000D02*
X230000D01*
X200720Y408894D02*
Y414911D01*
X200720Y414911D02*
X200720Y414911D01*
X203750Y416167D02*
X203750Y416166D01*
Y407639D02*
Y416166D01*
X200720Y408894D02*
X200720Y408894D01*
X203750Y416167D02*
Y422639D01*
Y407639D02*
X203750Y407639D01*
X194970Y410000D02*
Y411218D01*
X197500Y413747D02*
Y435000D01*
X194970Y411218D02*
X197500Y413747D01*
X200720Y414911D02*
Y423894D01*
X197500Y435000D02*
X197500Y435000D01*
X191750Y428872D02*
Y434250D01*
X191750Y428871D02*
X191750Y428872D01*
X191750Y427861D02*
Y428871D01*
X187500Y423611D02*
X191750Y427861D01*
X191750Y434250D02*
X192500Y435000D01*
X176750Y355250D02*
X177500Y354500D01*
Y350000D02*
Y354500D01*
X75040Y275000D02*
X76000D01*
X86000Y265000D01*
X235261Y527629D02*
Y533239D01*
X234500Y534000D02*
X235261Y533239D01*
X204000Y503250D02*
Y521960D01*
X86000Y265000D02*
X86500D01*
X108572Y312428D02*
X122429D01*
X127500Y317500D01*
X108500Y312500D02*
X108572Y312428D01*
X249250Y491750D02*
X249750D01*
X237000Y499000D02*
X237000Y499000D01*
X192750Y492000D02*
X204000Y503250D01*
X192250Y492000D02*
X192750D01*
X249750Y487250D02*
X252639D01*
X249250Y486750D02*
X249750Y487250D01*
X127500Y375000D02*
X136000D01*
X142500Y350000D02*
X143250Y350750D01*
X211750Y390750D02*
X212500Y390000D01*
D43*
X108000Y156500D02*
Y164250D01*
D55*
X106250Y454250D02*
D03*
X87250D02*
D03*
X87500Y288000D02*
D03*
X106500D02*
D03*
X72500Y315000D02*
D03*
X53500D02*
D03*
D56*
X173000Y461250D02*
D03*
X156000D02*
D03*
X260250Y400000D02*
D03*
X277250D02*
D03*
X260250Y382500D02*
D03*
X277250D02*
D03*
X82500Y333000D02*
D03*
X65500D02*
D03*
X141500Y461500D02*
D03*
X124500D02*
D03*
X89000Y192500D02*
D03*
X106000D02*
D03*
X86500Y265000D02*
D03*
X103500D02*
D03*
X251500Y534000D02*
D03*
X234500D02*
D03*
X108500Y312500D02*
D03*
X91500D02*
D03*
X76500Y494000D02*
D03*
X93500D02*
D03*
D57*
X85500Y247500D02*
D03*
X104500D02*
D03*
X95000Y227500D02*
D03*
D58*
X60000Y292000D02*
D03*
Y273000D02*
D03*
X40000Y282500D02*
D03*
D59*
X35000Y334000D02*
D03*
Y351000D02*
D03*
X150000Y91500D02*
D03*
Y108500D02*
D03*
X100000Y406000D02*
D03*
Y389000D02*
D03*
X122500Y248500D02*
D03*
Y231500D02*
D03*
X125000Y298500D02*
D03*
Y281500D02*
D03*
X270000Y488500D02*
D03*
Y505500D02*
D03*
X92500Y528500D02*
D03*
Y511500D02*
D03*
D60*
X58500Y376000D02*
D03*
Y414000D02*
D03*
X81500Y376000D02*
D03*
Y414000D02*
D03*
D61*
X142500Y350000D02*
D03*
X147500D02*
D03*
X152500D02*
D03*
X157500D02*
D03*
X162500D02*
D03*
X167500D02*
D03*
X172500D02*
D03*
X177500D02*
D03*
X182500D02*
D03*
X187500D02*
D03*
X192500D02*
D03*
X197500D02*
D03*
X152500Y435000D02*
D03*
X147500D02*
D03*
X142500D02*
D03*
X192500D02*
D03*
X182500D02*
D03*
X177500D02*
D03*
X172500D02*
D03*
X162500D02*
D03*
X157500D02*
D03*
X167500D02*
D03*
X187500D02*
D03*
X197500D02*
D03*
D62*
X127500Y420000D02*
D03*
Y405000D02*
D03*
Y395000D02*
D03*
Y375000D02*
D03*
Y385000D02*
D03*
Y390000D02*
D03*
Y380000D02*
D03*
Y370000D02*
D03*
Y365000D02*
D03*
Y415000D02*
D03*
Y400000D02*
D03*
Y410000D02*
D03*
X212500D02*
D03*
Y415000D02*
D03*
Y420000D02*
D03*
Y365000D02*
D03*
Y370000D02*
D03*
Y380000D02*
D03*
Y385000D02*
D03*
Y390000D02*
D03*
Y400000D02*
D03*
Y405000D02*
D03*
Y395000D02*
D03*
Y375000D02*
D03*
D63*
X227000Y474500D02*
D03*
X232000D02*
D03*
X237000D02*
D03*
X242000D02*
D03*
X247000D02*
D03*
X227000Y499000D02*
D03*
X237000D02*
D03*
X232000D02*
D03*
X242000D02*
D03*
X247000D02*
D03*
X170000Y474750D02*
D03*
X175000D02*
D03*
X180000D02*
D03*
X185000D02*
D03*
X190000D02*
D03*
X170000Y499250D02*
D03*
X180000D02*
D03*
X175000D02*
D03*
X185000D02*
D03*
X190000D02*
D03*
D64*
X224750Y491750D02*
D03*
Y486750D02*
D03*
Y481750D02*
D03*
X249250Y486750D02*
D03*
Y481750D02*
D03*
Y491750D02*
D03*
X167750Y492000D02*
D03*
Y487000D02*
D03*
Y482000D02*
D03*
X192250Y487000D02*
D03*
Y482000D02*
D03*
Y492000D02*
D03*
D65*
X245000Y400000D02*
D03*
X230000D02*
D03*
X245000Y385000D02*
D03*
X230000D02*
D03*
D66*
X64000Y137500D02*
D03*
X19000D02*
D03*
X152500Y580000D02*
D03*
X122500D02*
D03*
D67*
X190000Y528000D02*
D03*
Y547000D02*
D03*
D68*
X277500Y436500D02*
D03*
Y453500D02*
D03*
X145000Y494000D02*
D03*
Y511000D02*
D03*
X75000Y528500D02*
D03*
Y511500D02*
D03*
X105000Y346500D02*
D03*
Y363500D02*
D03*
X231000Y334500D02*
D03*
Y351500D02*
D03*
D69*
X64000Y355000D02*
D03*
X81000D02*
D03*
Y437500D02*
D03*
X64000D02*
D03*
X89000Y210000D02*
D03*
X106000D02*
D03*
X253500Y425000D02*
D03*
X236500D02*
D03*
X101500Y330000D02*
D03*
X118500D02*
D03*
X76500Y476500D02*
D03*
X93500D02*
D03*
D70*
X122000Y547000D02*
D03*
Y537500D02*
D03*
Y528000D02*
D03*
X148000D02*
D03*
Y547000D02*
D03*
D71*
X40750Y540875D02*
D03*
Y491125D02*
D03*
D72*
X41600Y516000D02*
D03*
Y529000D02*
D03*
Y522500D02*
D03*
Y509500D02*
D03*
Y503000D02*
D03*
D73*
X15000Y549750D02*
D03*
Y482250D02*
D03*
D74*
Y527500D02*
D03*
D75*
Y500500D02*
D03*
D76*
X89000Y172500D02*
D03*
X127000D02*
D03*
D77*
X108000D02*
D03*
D78*
X190134Y474884D02*
X196414D01*
X196548Y475019D01*
X106250Y454250D02*
X107500D01*
X147270Y435230D02*
X147500Y435000D01*
X147270Y435230D02*
Y441661D01*
X140161Y448770D02*
X147270Y441661D01*
X127230Y448770D02*
X140161D01*
X122000Y454000D02*
X127230Y448770D01*
X108500Y454000D02*
X122000D01*
X107500Y455000D02*
X108500Y454000D01*
X103174Y439394D02*
X124606D01*
X96299Y446270D02*
X103174Y439394D01*
X94230Y446270D02*
X96299D01*
X87250Y453250D02*
X94230Y446270D01*
X87250Y453250D02*
Y454250D01*
X124606Y439394D02*
X129000Y435000D01*
X142500D02*
X142500Y435000D01*
X142500Y435000D02*
X142500D01*
X127500Y420000D02*
X127500Y420000D01*
X128770D01*
X160000Y464980D02*
Y474500D01*
X156270Y461250D02*
X160000Y464980D01*
X156000Y461250D02*
X156270D01*
X190000Y474750D02*
X190134Y474884D01*
X218500Y426000D02*
X236500D01*
X212500Y420000D02*
X218500Y426000D01*
X229500Y350500D02*
X231000D01*
X247500Y397500D02*
X260250D01*
X245000Y400000D02*
X247500Y397500D01*
X245000Y385000D02*
X247500Y382500D01*
X260250D01*
X93500Y480000D02*
Y494000D01*
Y480000D02*
X150512D01*
X153012Y482500D01*
X153730D01*
X129000Y435000D02*
X130000D01*
X197500Y350000D02*
X227500D01*
X130000Y435000D02*
X142500D01*
X129000Y434000D02*
X130000Y435000D01*
X129000Y420230D02*
Y434000D01*
X128770Y420000D02*
X129000Y420230D01*
X66846Y490846D02*
X73346D01*
X52000Y476000D02*
X66846Y490846D01*
X73346D02*
X76500Y494000D01*
X160000Y474500D02*
Y490000D01*
X160250Y474750D02*
X170000D01*
X160000Y474500D02*
X160250Y474750D01*
X160000Y494000D02*
X162000Y492000D01*
X106322Y364823D02*
Y371322D01*
X216000Y480000D02*
X221020Y474980D01*
X216000Y480000D02*
Y492000D01*
X221020Y474980D02*
X226520D01*
X227000Y474500D01*
X162000Y492000D02*
X167750D01*
X228000Y350500D02*
X229500D01*
X227500Y350000D02*
X228000Y350500D01*
X197500Y350000D02*
X197500Y350000D01*
X230000Y352500D02*
X231000Y351500D01*
X230000Y352500D02*
X231000Y353500D01*
X65000Y333000D02*
X65500D01*
X47000Y351000D02*
X65000Y333000D01*
X35000Y351000D02*
X47000D01*
X216250Y491750D02*
X224750D01*
X216000Y492000D02*
X216250Y491750D01*
X62500Y427500D02*
X105000D01*
X62500Y418000D02*
Y427500D01*
X214600Y300400D02*
Y316400D01*
X208960Y322040D02*
X214600Y316400D01*
X188273Y322040D02*
X208960D01*
X195379Y315609D02*
X201010Y309978D01*
X167500Y350000D02*
X167730Y349770D01*
Y342583D02*
X188273Y322040D01*
X167730Y342583D02*
Y349770D01*
X154391Y315609D02*
X195379D01*
X201010Y290822D02*
Y309978D01*
X252000Y288400D02*
X265400Y275000D01*
X252000Y288400D02*
Y308000D01*
X233890Y326110D02*
X252000Y308000D01*
X189958Y326110D02*
X233890D01*
X152500Y328437D02*
X154000Y326936D01*
Y326000D02*
Y326936D01*
X152500Y328437D02*
Y350000D01*
X162500Y341367D02*
Y350000D01*
X177338Y323662D02*
Y326529D01*
X162500Y341367D02*
X177338Y326529D01*
Y323662D02*
X178000Y323000D01*
X172730Y343338D02*
X189958Y326110D01*
X172730Y343338D02*
Y349770D01*
X200946Y288654D02*
Y290758D01*
X201010Y290822D01*
X200946Y288654D02*
X214600Y275000D01*
X147500Y322500D02*
X154391Y315609D01*
X172500Y350000D02*
X172730Y349770D01*
X147500Y322500D02*
Y350000D01*
X275000Y381000D02*
Y397500D01*
X105000Y363250D02*
Y363500D01*
X108980Y359270D02*
X111730D01*
X119520Y331020D02*
Y351480D01*
X105000Y363250D02*
X108980Y359270D01*
X111730D02*
X119520Y351480D01*
X105000Y363500D02*
X106322Y364823D01*
Y371322D02*
X114770Y379770D01*
X118196Y369000D02*
X118966Y369770D01*
X127270D02*
X127500Y370000D01*
X118966Y369770D02*
X127270D01*
X117260Y369000D02*
X118196D01*
X108770Y285730D02*
X121270D01*
X106500Y288000D02*
X108770Y285730D01*
X121270D02*
X125000Y282000D01*
X202376Y333000D02*
X229500D01*
X231000Y334500D01*
X192730Y342645D02*
X202376Y333000D01*
X192730Y342645D02*
Y349770D01*
X192500Y350000D02*
X192730Y349770D01*
X35000Y309269D02*
X42500Y301769D01*
X35000Y309269D02*
Y334000D01*
X70066Y300586D02*
X122914D01*
X125000Y298500D01*
X65730Y296250D02*
X70066Y300586D01*
X48770Y307770D02*
X53500Y312500D01*
X48770Y297770D02*
Y307770D01*
X117500Y400000D02*
X127500D01*
X111250Y406250D02*
X117500Y400000D01*
X111000Y395000D02*
X127500D01*
X104230Y401770D02*
X111000Y395000D01*
X97678Y383678D02*
Y386678D01*
X97678Y383678D02*
X97678D01*
X97678Y378646D02*
Y383678D01*
X95033Y376000D02*
X97678Y378646D01*
X122500Y175000D02*
X125000Y172500D01*
X122500Y175000D02*
Y210000D01*
X275000Y381000D02*
X276000Y380000D01*
X65730Y295730D02*
Y296250D01*
X60000Y292000D02*
X62000D01*
X65730Y295730D01*
X45730Y286230D02*
Y294730D01*
X40000Y282500D02*
X42000D01*
X45730Y286230D01*
Y294730D02*
X48770Y297770D01*
X92500Y350000D02*
Y366376D01*
X86730Y336730D02*
Y344230D01*
X92500Y350000D01*
X118500Y330000D02*
X119520Y331020D01*
X127270Y379770D02*
X127500Y380000D01*
X114770Y379770D02*
X127270D01*
X115970Y389846D02*
X127346D01*
X92500Y366376D02*
X115970Y389846D01*
X82500Y333000D02*
X83000D01*
X86730Y336730D01*
X122500Y210000D02*
Y231500D01*
X106000Y210000D02*
X122500D01*
X106000Y195000D02*
Y210000D01*
X101770Y213980D02*
Y218730D01*
X95000Y225500D02*
X101770Y218730D01*
X95000Y225500D02*
Y227500D01*
X105750Y210000D02*
X106000D01*
X101770Y213980D02*
X105750Y210000D01*
X125000Y251000D02*
Y282000D01*
X122500Y248500D02*
X125000Y251000D01*
X104500Y247500D02*
Y264000D01*
X103500Y265000D02*
X104500Y264000D01*
X72500Y312500D02*
X91500D01*
X91500Y312500D01*
X62500Y427500D02*
Y436000D01*
X64000Y437500D01*
X58500Y414000D02*
X62500Y418000D01*
X105000Y427500D02*
X111250Y421250D01*
Y406250D02*
Y421250D01*
X103730Y401770D02*
X104230D01*
X100000Y405500D02*
Y406000D01*
Y405500D02*
X103730Y401770D01*
X127346Y389846D02*
X127500Y390000D01*
X97678Y386678D02*
X100000Y389000D01*
X81500Y376000D02*
X95033D01*
X81000Y355000D02*
Y375500D01*
X81500Y376000D01*
X93500Y494000D02*
X93500Y494000D01*
X108000Y529000D02*
X109000Y528000D01*
X108000Y529000D02*
Y542000D01*
X113000Y547000D02*
X122000D01*
X108000Y542000D02*
X113000Y547000D01*
X120096Y545096D02*
X122000Y547000D01*
D79*
X38436Y455000D02*
X86500D01*
X87250Y454250D01*
X35936Y457500D02*
X38436Y455000D01*
X35000Y457500D02*
X35936D01*
X160000Y490000D02*
Y492000D01*
Y494000D01*
X236750Y425000D02*
X239500Y427750D01*
Y428500D02*
X261500Y450500D01*
X236500Y425000D02*
X236750D01*
X239500Y427750D02*
Y428500D01*
X261500Y450500D02*
X274750D01*
X75750Y494750D02*
Y513250D01*
X77500Y511500D01*
X92500D01*
X281418Y349973D02*
X282500D01*
X231000Y351500D02*
X279890D01*
X281418Y349973D01*
X232856Y350500D02*
X233428Y351072D01*
X231000Y350500D02*
X232856D01*
X231000Y353500D02*
X232000Y352500D01*
X288082Y505500D02*
X296482Y497100D01*
X300000D01*
X270000Y505500D02*
X288082D01*
X294200Y460000D02*
X300000Y465800D01*
X277500Y453750D02*
X283750Y460000D01*
X294200D01*
X277500Y453250D02*
Y453750D01*
X160000Y494000D02*
Y547000D01*
X35000Y367500D02*
X35000Y367500D01*
X35000Y350500D02*
Y351000D01*
X35000Y351000D02*
Y367500D01*
X150000Y108500D02*
Y136000D01*
Y108500D02*
X150000Y108500D01*
X17500Y249500D02*
X44229D01*
X49729Y255000D01*
X50000D01*
X127691Y515691D02*
X135000Y523000D01*
Y535500D02*
X146500Y547000D01*
X135000Y523000D02*
Y535500D01*
X148000Y547000D02*
X148000Y547000D01*
X146500Y547000D02*
X148000D01*
X127500Y512500D02*
X127691Y512691D01*
Y515691D01*
X171500Y547000D02*
X171500Y547000D01*
X190000D01*
X35000Y351000D02*
X35000Y351000D01*
X282500Y321959D02*
Y349973D01*
X160000Y547000D02*
X171500D01*
X216000Y492000D02*
Y544571D01*
X190500Y547500D02*
X213071D01*
X216000Y544571D01*
X213071Y547500D02*
X260500D01*
X148000Y547000D02*
X160000D01*
X190000Y547000D02*
X190500Y547500D01*
X274750Y450500D02*
X277500Y453250D01*
X287500Y277500D02*
Y316959D01*
X282500Y321959D02*
X287500Y316959D01*
X270000Y505500D02*
X270000Y505500D01*
X260500Y547500D02*
X270000Y538000D01*
Y505500D02*
Y538000D01*
X75750Y494750D02*
X76500Y494000D01*
X123352Y77352D02*
X137500Y91500D01*
X150000D01*
X123352Y71252D02*
Y77352D01*
X107100Y55000D02*
X123352Y71252D01*
X146500Y515000D02*
Y527000D01*
X145000Y513500D02*
X146500Y515000D01*
Y527000D02*
X147500Y528000D01*
X148000D01*
X107000Y148000D02*
X109000Y146000D01*
X84000Y148000D02*
X107000D01*
X123000Y538500D02*
X126929D01*
X127429Y539000D01*
X131500Y551500D02*
X152500Y572500D01*
X128864Y539000D02*
X131500Y541636D01*
X127429Y539000D02*
X128864D01*
X122000Y537500D02*
X123000Y538500D01*
X131500Y541636D02*
Y551500D01*
X92500Y530500D02*
Y553500D01*
X91700Y554300D02*
X92500Y553500D01*
X152500Y572500D02*
Y580000D01*
X109000Y528000D02*
X122000D01*
X95000D02*
X109000D01*
X92500Y530500D02*
X95000Y528000D01*
D80*
X162500Y435000D02*
Y447743D01*
X157744Y452500D02*
X162500Y447743D01*
X146902Y452500D02*
X157744D01*
X146000Y453402D02*
Y457270D01*
X141770Y461500D02*
X146000Y457270D01*
X141500Y461500D02*
X141770D01*
X146000Y453402D02*
X146902Y452500D01*
D81*
X68300Y172959D02*
Y173500D01*
X64000Y137500D02*
Y168659D01*
X68300Y172959D01*
X17883Y138618D02*
Y173117D01*
X17500Y173500D02*
X17883Y173117D01*
Y138618D02*
X19000Y137500D01*
X91700Y579700D02*
X91850Y579850D01*
X122350D01*
X122500Y580000D01*
D82*
X46750Y529500D02*
X48860D01*
X63525Y544165D01*
Y551526D01*
X66300Y554300D01*
D83*
X195854Y449109D02*
X199141D01*
X200000Y448250D01*
X212500Y365000D02*
X235000D01*
X238755Y361245D01*
X250245D01*
X222960Y373040D02*
X247846D01*
X212500Y375000D02*
X221000D01*
X222960Y373040D01*
X226524Y376080D02*
X249920D01*
X257141Y368859D02*
X260141D01*
X249920Y376080D02*
X257141Y368859D01*
X260141D02*
X261000Y368000D01*
X241785Y367000D02*
X243000D01*
X192250Y487000D02*
X198871D01*
X201870Y490000D02*
X202000D01*
X198871Y487000D02*
X201870Y490000D01*
X261000Y359460D02*
Y359861D01*
X247846Y373040D02*
X255245Y365640D01*
X250245Y361245D02*
X250873Y361873D01*
X255245Y365616D02*
Y365640D01*
Y365616D02*
X261000Y359861D01*
X212500Y370000D02*
X238785D01*
X241785Y367000D01*
X222604Y380000D02*
X226524Y376080D01*
X212500Y380000D02*
X222604D01*
D84*
X161000Y334000D02*
Y334947D01*
X157500Y338447D02*
X161000Y334947D01*
X157500Y338447D02*
Y350000D01*
D85*
X108375Y136500D02*
D03*
D86*
X91700Y579700D02*
D03*
X66300Y554300D02*
D03*
Y579700D02*
D03*
X300000Y497100D02*
D03*
Y522500D02*
D03*
Y547900D02*
D03*
X268100Y580000D02*
D03*
X242700D02*
D03*
X217300D02*
D03*
X300000Y389600D02*
D03*
Y415000D02*
D03*
Y440400D02*
D03*
D87*
X91700Y554300D02*
D03*
X191900Y580000D02*
D03*
D88*
X300000Y573300D02*
D03*
X300000Y465800D02*
D03*
D89*
X68300Y249500D02*
D03*
X17500Y217500D02*
D03*
X68300D02*
D03*
Y173500D02*
D03*
Y195500D02*
D03*
X17500Y173500D02*
D03*
Y195500D02*
D03*
Y249500D02*
D03*
D90*
X189200Y275000D02*
D03*
X214600Y300400D02*
D03*
Y275000D02*
D03*
X240000D02*
D03*
Y300400D02*
D03*
X265400D02*
D03*
Y275000D02*
D03*
X107100Y55000D02*
D03*
X157900D02*
D03*
X183300D02*
D03*
X208700D02*
D03*
X132500D02*
D03*
D91*
X189200Y300400D02*
D03*
X81700Y55000D02*
D03*
D92*
X193000Y466500D02*
D03*
X192500Y454750D02*
D03*
X196548Y475019D02*
D03*
X155417Y446667D02*
D03*
X184807Y446193D02*
D03*
X10000Y100000D02*
D03*
X250000D02*
D03*
X200000D02*
D03*
X190000D02*
D03*
X180000D02*
D03*
X130000D02*
D03*
X120000D02*
D03*
X110000D02*
D03*
X100000D02*
D03*
X90000D02*
D03*
X80000D02*
D03*
X70000D02*
D03*
X60000D02*
D03*
X50000D02*
D03*
X40000D02*
D03*
X30000D02*
D03*
X20000D02*
D03*
X259848Y506602D02*
D03*
X268000Y425750D02*
D03*
X119250Y493750D02*
D03*
X222000Y337000D02*
D03*
X150000Y472000D02*
D03*
X42500Y575000D02*
D03*
X233000Y444000D02*
D03*
X247487Y512000D02*
D03*
X236000Y517000D02*
D03*
X253237Y523415D02*
D03*
X277500Y410000D02*
D03*
X250000Y463000D02*
D03*
X238990Y481254D02*
D03*
X235900Y489215D02*
D03*
X214865Y455852D02*
D03*
X207623Y460377D02*
D03*
X200000Y448250D02*
D03*
X208000Y498000D02*
D03*
X224000Y533000D02*
D03*
X172000Y536000D02*
D03*
X275000Y477000D02*
D03*
X280000Y493000D02*
D03*
X251000Y535000D02*
D03*
X156000Y384000D02*
D03*
X197000Y367000D02*
D03*
X92000Y440000D02*
D03*
X158000Y580000D02*
D03*
X160000Y362000D02*
D03*
X144000Y371000D02*
D03*
X139000Y379000D02*
D03*
X153730Y482500D02*
D03*
X35000Y367500D02*
D03*
X50000Y255000D02*
D03*
X150000Y136000D02*
D03*
X35000Y457500D02*
D03*
X127500Y512500D02*
D03*
X190000Y506160D02*
D03*
X161000Y334000D02*
D03*
X178000Y323000D02*
D03*
X154000Y326000D02*
D03*
X180750Y507500D02*
D03*
X204818Y535545D02*
D03*
X250000Y330000D02*
D03*
X75000Y472500D02*
D03*
X97500Y332500D02*
D03*
X65000Y352500D02*
D03*
X184066Y490934D02*
D03*
X117260Y369000D02*
D03*
X52000Y476000D02*
D03*
X191000Y389000D02*
D03*
X177000Y407000D02*
D03*
X182292Y399865D02*
D03*
X172000Y416000D02*
D03*
X160000Y417000D02*
D03*
X149000Y418000D02*
D03*
X202000Y490000D02*
D03*
X177000Y484000D02*
D03*
X250873Y361873D02*
D03*
X261000Y368000D02*
D03*
Y359460D02*
D03*
X242000Y367000D02*
D03*
X42500Y301769D02*
D03*
X84000Y148000D02*
D03*
X207500Y482500D02*
D03*
X194970Y410000D02*
D03*
X225723Y466710D02*
D03*
X170000Y397500D02*
D03*
X75040Y275000D02*
D03*
X204000Y521960D02*
D03*
X127500Y317500D02*
D03*
D93*
X301000Y356000D02*
D03*
X271000Y236000D02*
D03*
X256000Y206000D02*
D03*
X271000Y116000D02*
D03*
X241000Y236000D02*
D03*
X226000Y206000D02*
D03*
X241000Y176000D02*
D03*
Y56000D02*
D03*
X226000Y26000D02*
D03*
X211000Y236000D02*
D03*
X196000Y206000D02*
D03*
X211000Y176000D02*
D03*
Y116000D02*
D03*
X196000Y26000D02*
D03*
X181000Y236000D02*
D03*
X166000Y206000D02*
D03*
X181000Y176000D02*
D03*
Y116000D02*
D03*
X166000Y26000D02*
D03*
X151000Y296000D02*
D03*
Y236000D02*
D03*
X136000Y206000D02*
D03*
X151000Y176000D02*
D03*
X136000Y26000D02*
D03*
X106000Y86000D02*
D03*
Y26000D02*
D03*
X76000Y86000D02*
D03*
Y26000D02*
D03*
X46000Y86000D02*
D03*
X61000Y56000D02*
D03*
X46000Y26000D02*
D03*
X16000Y86000D02*
D03*
X31000Y56000D02*
D03*
X16000Y26000D02*
D03*
D94*
X22500Y577500D02*
D03*
X295000Y130000D02*
D03*
D95*
X287500Y277500D02*
D03*
X282500Y349973D02*
D03*
M02*
