G04*
G04 #@! TF.GenerationSoftware,Altium Limited,Altium Designer,22.9.1 (49)*
G04*
G04 Layer_Color=8388736*
%FSLAX44Y44*%
%MOMM*%
G71*
G04*
G04 #@! TF.SameCoordinates,7A88E338-F056-4336-BEC6-008BA3D2BE7B*
G04*
G04*
G04 #@! TF.FilePolarity,Negative*
G04*
G01*
G75*
%ADD15R,1.2250X2.8000*%
%ADD16R,1.7750X6.6000*%
%ADD17R,2.4500X0.5500*%
%ADD18R,0.5500X1.4500*%
%ADD19R,0.0250X0.0250*%
%ADD20R,1.5032X1.7032*%
%ADD21R,1.3032X1.2032*%
%ADD22R,1.2032X1.6032*%
%ADD23R,1.6032X1.2032*%
%ADD24R,1.2032X1.3032*%
%ADD25R,1.6032X1.8032*%
%ADD26R,0.5032X1.4032*%
%ADD27R,1.4032X0.5032*%
%ADD28R,0.4500X0.5500*%
%ADD29R,0.5500X0.4500*%
%ADD30R,1.0032X1.1032*%
%ADD31R,1.7032X3.2032*%
%ADD32R,1.7032X1.5032*%
%ADD33R,1.2532X1.3032*%
%ADD34R,1.3032X1.2532*%
%ADD35R,1.2032X0.9032*%
%ADD36R,1.7532X1.6282*%
%ADD37R,1.5832X0.6532*%
%ADD38R,1.5032X1.8532*%
%ADD39R,2.1032X2.0032*%
%ADD40R,2.1032X1.2032*%
%ADD41R,1.7032X2.0032*%
%ADD42R,0.9032X2.0032*%
%ADD43C,0.7000*%
%ADD44R,2.7000X4.3000*%
%ADD45C,2.0032*%
%ADD46R,2.0032X2.0032*%
%ADD47R,2.0032X2.0032*%
%ADD48C,1.4032*%
%ADD49C,1.9000*%
%ADD50R,1.9000X1.9000*%
%ADD51R,1.8032X1.8032*%
%ADD52C,1.8032*%
%ADD53C,0.8032*%
%ADD54C,2.2032*%
D15*
X122125Y537500D02*
D03*
D16*
X40875Y516000D02*
D03*
D17*
X237000Y474500D02*
D03*
Y499000D02*
D03*
X180250Y499250D02*
D03*
X180000Y474750D02*
D03*
D18*
X249250Y486750D02*
D03*
X224750D02*
D03*
X167750Y487000D02*
D03*
X192250D02*
D03*
D19*
X167625Y477625D02*
D03*
D20*
X106250Y454250D02*
D03*
X87250D02*
D03*
X87500Y288000D02*
D03*
X106500D02*
D03*
X72500Y315000D02*
D03*
X53500D02*
D03*
D21*
X173000Y461250D02*
D03*
X156000D02*
D03*
X260250Y400000D02*
D03*
X277250D02*
D03*
X260250Y382500D02*
D03*
X277250D02*
D03*
X82500Y333000D02*
D03*
X65500D02*
D03*
X141500Y461500D02*
D03*
X124500D02*
D03*
X89000Y192500D02*
D03*
X106000D02*
D03*
X86500Y265000D02*
D03*
X103500D02*
D03*
X251500Y534000D02*
D03*
X234500D02*
D03*
X108500Y312500D02*
D03*
X91500D02*
D03*
X76500Y494000D02*
D03*
X93500D02*
D03*
D22*
X85500Y247500D02*
D03*
X104500D02*
D03*
X95000Y227500D02*
D03*
D23*
X60000Y292000D02*
D03*
Y273000D02*
D03*
X40000Y282500D02*
D03*
D24*
X35000Y334000D02*
D03*
Y351000D02*
D03*
X150000Y91500D02*
D03*
Y108500D02*
D03*
X100000Y406000D02*
D03*
Y389000D02*
D03*
X122500Y248500D02*
D03*
Y231500D02*
D03*
X125000Y298500D02*
D03*
Y281500D02*
D03*
X270000Y488500D02*
D03*
Y505500D02*
D03*
X92500Y528500D02*
D03*
Y511500D02*
D03*
D25*
X58500Y376000D02*
D03*
Y414000D02*
D03*
X81500Y376000D02*
D03*
Y414000D02*
D03*
D26*
X142500Y350000D02*
D03*
X147500D02*
D03*
X152500D02*
D03*
X157500D02*
D03*
X162500D02*
D03*
X167500D02*
D03*
X172500D02*
D03*
X177500D02*
D03*
X182500D02*
D03*
X187500D02*
D03*
X192500D02*
D03*
X197500D02*
D03*
X152500Y435000D02*
D03*
X147500D02*
D03*
X142500D02*
D03*
X192500D02*
D03*
X182500D02*
D03*
X177500D02*
D03*
X172500D02*
D03*
X162500D02*
D03*
X157500D02*
D03*
X167500D02*
D03*
X187500D02*
D03*
X197500D02*
D03*
D27*
X127500Y420000D02*
D03*
Y405000D02*
D03*
Y395000D02*
D03*
Y375000D02*
D03*
Y385000D02*
D03*
Y390000D02*
D03*
Y380000D02*
D03*
Y370000D02*
D03*
Y365000D02*
D03*
Y415000D02*
D03*
Y400000D02*
D03*
Y410000D02*
D03*
X212500D02*
D03*
Y415000D02*
D03*
Y420000D02*
D03*
Y365000D02*
D03*
Y370000D02*
D03*
Y380000D02*
D03*
Y385000D02*
D03*
Y390000D02*
D03*
Y400000D02*
D03*
Y405000D02*
D03*
Y395000D02*
D03*
Y375000D02*
D03*
D28*
X227000Y474500D02*
D03*
X232000D02*
D03*
X237000D02*
D03*
X242000D02*
D03*
X247000D02*
D03*
X227000Y499000D02*
D03*
X237000D02*
D03*
X232000D02*
D03*
X242000D02*
D03*
X247000D02*
D03*
X170000Y474750D02*
D03*
X175000D02*
D03*
X180000D02*
D03*
X185000D02*
D03*
X190000D02*
D03*
X170000Y499250D02*
D03*
X180000D02*
D03*
X175000D02*
D03*
X185000D02*
D03*
X190000D02*
D03*
D29*
X224750Y491750D02*
D03*
Y486750D02*
D03*
Y481750D02*
D03*
X249250Y486750D02*
D03*
Y481750D02*
D03*
Y491750D02*
D03*
X167750Y492000D02*
D03*
Y487000D02*
D03*
Y482000D02*
D03*
X192250Y487000D02*
D03*
Y482000D02*
D03*
Y492000D02*
D03*
D30*
X245000Y400000D02*
D03*
X230000D02*
D03*
X245000Y385000D02*
D03*
X230000D02*
D03*
D31*
X64000Y137500D02*
D03*
X19000D02*
D03*
X152500Y580000D02*
D03*
X122500D02*
D03*
D32*
X190000Y528000D02*
D03*
Y547000D02*
D03*
D33*
X277500Y436500D02*
D03*
Y453500D02*
D03*
X145000Y494000D02*
D03*
Y511000D02*
D03*
X75000Y528500D02*
D03*
Y511500D02*
D03*
X105000Y346500D02*
D03*
Y363500D02*
D03*
X231000Y334500D02*
D03*
Y351500D02*
D03*
D34*
X64000Y355000D02*
D03*
X81000D02*
D03*
Y437500D02*
D03*
X64000D02*
D03*
X89000Y210000D02*
D03*
X106000D02*
D03*
X253500Y425000D02*
D03*
X236500D02*
D03*
X101500Y330000D02*
D03*
X118500D02*
D03*
X76500Y476500D02*
D03*
X93500D02*
D03*
D35*
X122000Y547000D02*
D03*
Y537500D02*
D03*
Y528000D02*
D03*
X148000D02*
D03*
Y547000D02*
D03*
D36*
X40750Y540875D02*
D03*
Y491125D02*
D03*
D37*
X41600Y516000D02*
D03*
Y529000D02*
D03*
Y522500D02*
D03*
Y509500D02*
D03*
Y503000D02*
D03*
D38*
X15000Y549750D02*
D03*
Y482250D02*
D03*
D39*
Y527500D02*
D03*
D40*
Y500500D02*
D03*
D41*
X89000Y172500D02*
D03*
X127000D02*
D03*
D42*
X108000D02*
D03*
D43*
Y156500D02*
Y164250D01*
D44*
X108375Y136500D02*
D03*
D45*
X91700Y579700D02*
D03*
X66300Y554300D02*
D03*
Y579700D02*
D03*
X300000Y497100D02*
D03*
Y522500D02*
D03*
Y547900D02*
D03*
X268100Y580000D02*
D03*
X242700D02*
D03*
X217300D02*
D03*
X300000Y389600D02*
D03*
Y415000D02*
D03*
Y440400D02*
D03*
D46*
X91700Y554300D02*
D03*
X191900Y580000D02*
D03*
D47*
X300000Y573300D02*
D03*
X300000Y465800D02*
D03*
D48*
X68300Y249500D02*
D03*
X17500Y217500D02*
D03*
X68300D02*
D03*
Y173500D02*
D03*
Y195500D02*
D03*
X17500Y173500D02*
D03*
Y195500D02*
D03*
Y249500D02*
D03*
D49*
X189200Y275000D02*
D03*
X214600Y300400D02*
D03*
Y275000D02*
D03*
X240000D02*
D03*
Y300400D02*
D03*
X265400D02*
D03*
Y275000D02*
D03*
D50*
X189200Y300400D02*
D03*
D51*
X81700Y55000D02*
D03*
D52*
X107100D02*
D03*
X157900D02*
D03*
X183300D02*
D03*
X208700D02*
D03*
X132500D02*
D03*
D53*
X10000Y100000D02*
D03*
X250000D02*
D03*
X200000D02*
D03*
X190000D02*
D03*
X180000D02*
D03*
X130000D02*
D03*
X120000D02*
D03*
X110000D02*
D03*
X100000D02*
D03*
X90000D02*
D03*
X80000D02*
D03*
X70000D02*
D03*
X60000D02*
D03*
X50000D02*
D03*
X40000D02*
D03*
X30000D02*
D03*
X20000D02*
D03*
X268000Y425750D02*
D03*
X119250Y493750D02*
D03*
D54*
X22500Y577500D02*
D03*
X295000Y130000D02*
D03*
M02*
